<?xml version="1.0" standalone="no"?>
<!DOCTYPE svg PUBLIC "-//W3C//DTD SVG 20010904//EN"
 "http://www.w3.org/TR/2001/REC-SVG-20010904/DTD/svg10.dtd">
<svg version="1.0" xmlns="http://www.w3.org/2000/svg"
 width="550.000000pt" height="550.000000pt" viewBox="0 0 550.000000 550.000000"
 preserveAspectRatio="xMidYMid meet">
<metadata>
Created by potrace 1.14, written by Peter Selinger 2001-2017
</metadata>
<g transform="translate(0.000000,550.000000) scale(0.100000,-0.100000)"
fill="#000000" stroke="none">
<path d="M2630 5494 c-408 -26 -755 -117 -1094 -288 -213 -107 -365 -206 -537
-349 -293 -246 -531 -549 -699 -892 -197 -401 -282 -769 -282 -1215 0 -284 32
-514 108 -779 93 -319 280 -676 500 -951 91 -114 297 -318 414 -413 333 -266
758 -465 1167 -546 207 -42 329 -54 548 -54 313 0 569 41 863 138 163 54 443
182 554 254 44 28 47 33 43 63 -5 33 -5 33 6 6 6 -16 14 -28 18 -28 19 0 18
15 -5 51 -26 42 -28 49 -15 49 5 0 14 -13 21 -30 17 -42 31 -51 55 -34 19 14
19 15 -8 69 -15 30 -23 55 -19 55 4 0 18 -20 30 -45 12 -25 26 -45 32 -45 14
0 13 2 -15 67 -14 31 -27 65 -28 74 -2 9 -19 35 -39 57 -34 38 -68 92 -68 108
0 3 17 -16 37 -44 21 -28 39 -49 41 -48 1 2 38 -33 81 -77 l79 -81 73 59 c99
79 309 290 393 395 220 275 407 632 500 951 76 265 108 495 108 779 0 284 -32
514 -108 779 -117 403 -356 812 -659 1130 -422 442 -1026 743 -1637 815 -130
16 -365 26 -458 20z m-1115 -949 c17 -7 62 -25 100 -40 39 -15 75 -31 80 -36
6 -4 52 -24 103 -43 50 -19 153 -62 228 -96 134 -59 138 -60 203 -54 36 3 93
15 125 25 32 11 65 18 73 15 8 -3 30 1 49 9 50 21 31 -1 -21 -24 -65 -29 -97
-36 -55 -12 43 25 36 26 -21 5 -88 -32 -159 -52 -153 -42 4 6 -11 7 -42 2 -35
-5 -50 -3 -58 7 -12 16 -226 108 -381 165 -55 20 -124 47 -153 60 l-53 23 20
-33 c23 -36 27 -51 11 -41 -5 3 -10 -3 -10 -13 0 -33 -52 -48 -119 -34 -104
22 -133 11 -166 -60 -9 -21 -21 -38 -26 -38 -5 0 -9 32 -9 71 0 46 -4 68 -10
64 -26 -16 -59 -87 -68 -144 -14 -94 2 -315 28 -384 l21 -57 24 18 c20 14 24
24 20 56 -2 22 -6 100 -8 175 -3 75 -3 118 0 96 4 -37 23 -75 23 -47 0 30 61
-22 105 -90 26 -40 64 -98 83 -128 20 -30 51 -74 70 -97 34 -44 111 -103 133
-103 7 0 21 -8 32 -17 19 -18 20 -18 3 15 -12 23 -13 32 -4 30 7 -2 19 -16 25
-33 l13 -30 -5 35 c-5 33 -4 31 19 -16 13 -28 29 -55 36 -59 7 -4 5 6 -5 25
-9 17 -14 34 -11 37 2 3 12 -10 21 -29 21 -39 53 -76 80 -90 19 -10 19 -10 4
8 -9 10 -22 30 -29 44 l-13 25 28 -25 28 -25 -20 35 c-79 137 -149 248 -166
268 -11 12 -15 22 -9 22 13 0 52 -39 52 -52 0 -5 18 -28 40 -52 39 -42 140
-200 140 -218 0 -5 -5 -6 -11 -2 -6 3 -4 -7 5 -24 8 -16 33 -39 56 -50 22 -11
40 -18 40 -17 0 2 -38 65 -85 141 -77 124 -110 190 -70 138 28 -36 165 -261
165 -271 0 -16 99 -95 110 -88 5 3 10 2 10 -4 0 -6 24 -22 54 -36 29 -14 78
-48 107 -76 30 -28 73 -64 96 -81 23 -17 45 -38 48 -46 5 -13 3 -13 -13 1 -11
10 -29 20 -42 22 -12 2 -34 12 -49 21 -25 17 -26 17 -9 -2 16 -19 16 -20 -15
-19 -35 1 -80 22 -73 33 2 4 -10 8 -27 9 l-32 3 40 -25 40 -24 -90 4 c-90 3
-168 22 -215 53 -28 18 -133 45 -125 32 9 -15 -14 -21 -36 -9 -15 8 -19 8 -15
0 9 -14 -48 -15 -77 0 -21 9 -21 9 -3 -5 21 -17 13 -38 -11 -29 -12 5 -14 3
-8 -8 4 -8 -5 -3 -21 11 -70 61 -78 64 -40 18 21 -27 35 -48 31 -48 -4 0 -1
-8 6 -17 7 -10 -5 -1 -28 20 -28 27 -42 35 -46 25 -2 -7 3 -21 11 -31 9 -10
17 -23 18 -30 1 -7 6 -21 10 -31 6 -15 4 -17 -7 -11 -12 7 -12 6 -1 -7 7 -9
11 -20 10 -26 -6 -21 167 -185 222 -211 21 -10 22 -9 6 1 -41 28 -77 61 -71
66 3 3 15 -4 28 -15 26 -24 101 -58 91 -41 -5 8 -2 9 9 5 41 -17 50 -17 22 -1
-17 10 -25 19 -18 21 8 3 2 14 -15 28 -15 14 -21 25 -14 25 7 0 10 5 6 11 -7
11 82 -36 101 -54 14 -12 -65 21 -84 36 -14 10 -14 10 -4 -4 7 -9 31 -24 53
-34 28 -12 37 -21 28 -26 -7 -4 37 -7 97 -5 61 2 120 -2 133 -7 24 -11 62 -66
61 -88 0 -11 -2 -11 -6 1 -12 32 -45 70 -61 70 -16 -1 -15 -2 1 -11 9 -5 17
-15 17 -21 0 -6 -7 -5 -17 3 -11 10 -14 10 -9 2 10 -17 1 -16 -35 3 -17 8 -34
12 -37 8 -4 -4 -1 -9 6 -11 24 -9 11 -23 -22 -23 -19 0 -42 -3 -51 -7 -15 -5
-14 -8 6 -20 23 -13 22 -14 -18 -10 -24 3 -43 2 -43 -2 0 -3 -9 -12 -20 -19
-16 -10 -29 -9 -70 7 -59 23 -64 19 -12 -9 l37 -21 -32 4 c-18 2 -30 0 -27 -5
3 -4 -1 -8 -8 -9 -7 0 5 -6 27 -13 l40 -12 -57 -8 c-32 -4 -68 -5 -80 -1 -18
5 -20 4 -8 -4 8 -6 38 -11 65 -11 40 -1 46 -3 32 -11 -11 -6 -37 -8 -61 -5
-47 7 -66 -3 -84 -49 l-12 -30 19 23 c27 31 34 28 16 -8 -16 -31 -9 -39 15
-17 8 6 6 1 -5 -12 -20 -24 -20 -24 0 -17 16 6 14 0 -10 -25 -17 -18 -46 -46
-65 -63 -19 -17 -45 -41 -58 -54 -13 -12 -48 -41 -78 -63 -42 -31 -53 -36 -44
-19 6 12 32 34 57 50 41 26 84 70 68 70 -8 0 -72 -46 -109 -79 -25 -23 -27
-23 -18 -5 12 23 67 68 105 85 14 6 28 18 31 26 3 8 2 12 -2 9 -4 -2 -38 -25
-77 -50 -78 -52 -107 -60 -55 -16 23 20 28 28 15 24 -14 -4 -11 1 10 18 16 13
41 34 55 46 l25 24 -30 -19 c-54 -35 -61 -37 -40 -13 l20 23 -27 -17 c-27 -18
-33 -8 -13 24 7 11 3 11 -18 -3 -15 -10 -32 -15 -37 -12 -5 3 -27 -3 -49 -15
-22 -11 -45 -20 -52 -20 -6 0 -25 -10 -42 -22 -19 -13 -27 -15 -19 -6 23 28
89 69 136 83 26 8 44 10 41 5 -4 -6 -4 -10 0 -10 8 0 84 50 118 77 40 32 23
29 -20 -4 -44 -34 -41 -21 12 51 31 44 41 52 48 40 8 -14 11 -13 28 2 10 9 19
21 19 27 0 5 -9 -1 -19 -14 l-20 -24 5 45 c3 33 2 40 -5 25 -8 -18 -10 -16
-10 11 -1 16 -8 39 -16 50 -13 17 -14 16 -4 -13 21 -62 3 -56 -20 6 -12 35
-25 61 -27 58 -2 -2 3 -20 11 -40 8 -20 15 -47 14 -59 0 -13 -9 4 -19 37 -11
33 -18 65 -16 71 5 14 -211 214 -230 214 -21 0 -312 296 -330 335 -11 25 -20
70 -22 121 l-4 82 41 24 c23 14 38 27 35 30 -3 3 13 9 35 13 33 5 44 14 64 47
l23 40 -25 51 c-25 50 -26 58 -26 247 0 214 4 234 64 302 17 20 31 43 31 53 0
19 39 79 47 71 3 -2 18 1 34 8 35 15 152 10 194 -9z m1042 -220 c-15 -14 -33
-25 -40 -25 -6 0 4 11 23 25 43 32 53 32 17 0z m41 -21 c-21 -19 -42 -34 -47
-34 -6 0 9 18 32 39 23 22 44 37 47 34 3 -2 -12 -20 -32 -39z m42 -9 c-24 -25
-49 -45 -55 -45 -10 1 82 90 93 90 3 0 -14 -20 -38 -45z m125 37 c-21 -19
-128 -75 -121 -63 8 13 106 71 121 71 5 0 5 -3 0 -8z m-1225 -12 c0 -5 -2 -10
-4 -10 -3 0 -8 5 -11 10 -3 6 -1 10 4 10 6 0 11 -4 11 -10z m-120 -10 c0 -5
-2 -10 -4 -10 -3 0 -8 5 -11 10 -3 6 -1 10 4 10 6 0 11 -4 11 -10z m470 -30
c10 0 22 -5 26 -11 9 -16 -70 -2 -123 21 -62 27 -53 31 18 9 33 -10 69 -19 79
-19z m880 15 c-35 -13 -66 -23 -68 -21 -7 7 85 46 108 45 16 0 3 -8 -40 -24z
m1768 6 c12 -6 29 -25 39 -41 9 -17 21 -30 25 -30 4 0 8 -58 8 -129 0 -127 -1
-130 -49 -277 -27 -82 -54 -150 -60 -152 -6 -2 -11 -11 -11 -19 0 -27 -23 -93
-30 -88 -4 2 -13 -14 -19 -36 -7 -23 -15 -38 -19 -34 -4 4 -12 -17 -19 -47 -6
-29 -16 -69 -21 -88 l-10 -35 -2 35 c-1 31 -4 27 -28 -42 -25 -70 -54 -124
-38 -70 16 57 15 63 -4 18 l-21 -48 27 -35 c14 -19 24 -37 21 -39 -3 -3 -15 8
-28 25 -20 28 -24 29 -39 16 -9 -8 -20 -12 -23 -8 -4 3 -7 1 -7 -6 0 -6 7 -14
15 -18 9 -3 25 -24 36 -47 l20 -41 -21 25 c-14 16 -33 25 -56 26 -42 1 -53
-12 -29 -34 10 -10 15 -12 12 -7 -8 16 9 40 17 26 4 -6 3 -11 -3 -11 -10 0 -9
-19 2 -37 14 -22 -6 -14 -37 14 -31 28 -31 27 2 -7 33 -37 42 -57 20 -44 -7 4
-5 -2 5 -14 11 -11 16 -25 13 -30 -3 -5 1 -18 9 -28 8 -10 15 -14 15 -7 0 6
-5 15 -10 18 -6 4 -8 11 -4 16 3 5 0 16 -6 24 -10 12 -9 15 3 15 14 0 37 -65
37 -106 0 -10 10 -28 22 -41 24 -26 32 -53 16 -53 -6 0 -54 42 -106 93 -95 91
-95 92 -36 22 32 -38 79 -89 104 -112 24 -24 39 -43 33 -43 -6 0 -45 32 -86
70 -41 39 -79 70 -83 70 -5 0 21 -30 56 -67 62 -64 35 -45 -57 41 -24 22 -43
36 -43 31 0 -6 40 -45 90 -89 90 -79 148 -138 165 -166 7 -13 6 -13 -11 1
-109 88 -128 102 -100 71 17 -18 26 -32 22 -32 -5 0 17 -27 48 -61 31 -33 56
-65 56 -70 0 -5 -25 16 -56 48 l-55 58 34 -50 c45 -66 58 -92 62 -122 2 -21
-12 -11 -83 58 -48 46 -77 73 -66 59 36 -43 39 -56 6 -26 -18 17 -32 26 -32
22 0 -5 -9 3 -21 18 -11 14 -25 26 -30 26 -6 0 -38 19 -72 42 -34 23 -54 33
-45 22 20 -23 159 -121 171 -122 7 0 61 -58 141 -151 l21 -24 -25 16 c-14 9
-42 36 -62 60 -20 24 -56 59 -80 77 l-43 32 45 -41 c25 -22 44 -45 43 -50 -2
-6 25 -41 60 -78 49 -53 55 -62 27 -43 l-35 23 41 -44 c43 -45 69 -87 61 -95
-3 -3 -14 10 -25 28 -11 18 -37 49 -58 68 l-37 35 40 -60 c22 -33 55 -87 72
-120 28 -52 29 -56 8 -31 -13 15 -46 64 -72 108 -41 69 -51 91 -54 120 -1 6
-75 60 -140 100 -22 14 -28 15 -28 4 0 -8 6 -12 15 -8 10 3 13 1 9 -6 -4 -6 7
-21 25 -33 18 -13 49 -37 69 -54 l36 -32 -31 -1 c-17 0 -35 3 -41 8 -5 4 -32
15 -60 23 -27 8 -59 18 -70 22 -11 4 -1 -4 22 -18 23 -14 57 -30 76 -36 41
-14 122 -70 113 -78 -3 -4 -14 1 -23 9 -34 28 -48 31 -24 5 14 -15 20 -27 14
-27 -16 0 -54 46 -46 55 5 4 2 5 -5 1 -7 -4 -18 -3 -25 2 -7 5 -37 24 -67 41
-55 31 -48 24 44 -44 62 -46 121 -81 111 -66 -5 9 -3 12 6 9 8 -3 13 -10 12
-16 -1 -5 7 -18 17 -27 11 -10 20 -24 20 -32 0 -9 5 -11 13 -7 6 4 9 4 5 -1
-4 -4 11 -31 35 -59 67 -80 75 -94 28 -51 -23 22 -63 67 -88 100 -25 33 -66
73 -92 90 -25 16 -48 32 -51 35 -3 3 -23 17 -45 30 l-40 23 36 -34 c19 -19 31
-31 25 -26 -18 13 -29 7 -16 -8 11 -13 10 -14 -6 -9 -18 7 -18 6 1 -16 14 -15
0 -10 -44 19 -63 40 -88 51 -76 31 10 -16 -3 -12 -51 16 -24 14 -44 24 -44 21
0 -3 20 -17 43 -30 24 -14 44 -33 44 -42 0 -9 -6 -14 -14 -11 -20 8 -16 -2 6
-14 17 -9 19 -7 16 11 -3 13 0 19 8 16 7 -3 11 -10 9 -16 -1 -7 2 -10 8 -6 18
11 32 -5 19 -21 -10 -12 -9 -13 4 -9 8 4 21 -2 28 -12 8 -10 26 -26 41 -36 16
-9 27 -21 25 -26 -1 -5 9 -18 23 -29 18 -15 4 -11 -46 13 -40 19 -92 44 -115
55 -24 11 -57 29 -74 39 -16 11 -34 20 -40 20 -17 2 38 -33 130 -81 104 -55
100 -63 -8 -14 -49 22 -74 29 -74 21 0 -8 7 -11 15 -7 10 3 13 1 8 -6 -5 -8
-1 -10 10 -5 13 5 15 3 9 -7 -5 -7 -4 -11 1 -7 5 3 20 -1 34 -9 24 -13 24 -13
-10 -8 -19 4 -68 24 -107 45 -101 53 -110 28 -10 -29 42 -24 51 -27 42 -12 -9
14 -5 13 68 -20 73 -33 81 -35 71 -19 -7 12 19 0 79 -38 21 -13 42 -21 46 -18
12 7 42 -5 36 -15 -3 -4 3 -14 13 -21 15 -13 16 -12 3 3 -17 23 2 24 20 1 8
-9 13 -18 12 -20 -2 -1 0 -3 5 -4 4 0 16 -7 27 -16 11 -9 -4 8 -34 37 -41 39
-51 54 -41 60 11 7 11 11 0 27 -13 16 -11 15 10 -2 14 -11 38 -31 54 -45 l28
-25 -15 31 c-9 18 -45 60 -79 95 l-63 63 50 -28 c28 -16 63 -40 79 -55 l29
-26 -17 27 c-10 15 -49 48 -87 74 -38 26 -67 49 -65 51 2 3 29 -10 60 -27 51
-29 149 -124 198 -194 l21 -28 -36 23 c-19 13 -49 34 -65 47 -17 12 5 -14 48
-59 94 -96 108 -131 18 -44 l-61 60 44 -65 c65 -94 67 -101 12 -44 -26 28 -57
57 -68 64 -11 8 1 -8 26 -36 43 -46 125 -189 132 -230 2 -11 9 -30 17 -44 14
-25 18 -38 24 -75 1 -11 8 -31 15 -43 7 -13 10 -28 8 -35 -2 -7 4 -29 15 -50
11 -22 16 -46 13 -55 -6 -14 -11 -12 -31 13 l-25 30 12 -30 c7 -16 23 -45 36
-62 13 -18 19 -33 13 -33 -6 0 -13 7 -16 15 -4 8 -10 13 -15 10 -4 -3 -15 8
-24 25 -8 16 -18 30 -20 30 -8 0 43 -98 55 -105 5 -3 10 -11 10 -17 0 -6 -12
-1 -26 13 -15 13 -24 17 -21 9 32 -83 33 -125 2 -84 -8 10 -15 15 -15 10 0 -5
-7 -3 -15 4 -22 19 -19 7 21 -65 20 -36 34 -68 31 -71 -6 -7 -77 120 -82 149
-3 12 -61 77 -131 144 -69 67 -124 118 -122 114 4 -12 115 -138 158 -180 34
-34 34 -34 5 -16 -83 50 -131 104 -185 205 -12 23 -12 24 3 11 19 -15 23 -1 5
17 -6 6 -10 14 -7 16 3 3 36 -31 73 -74 63 -74 77 -85 99 -81 5 1 5 -4 1 -11
-4 -7 -3 -10 1 -5 5 4 27 -10 49 -30 32 -31 35 -32 15 -8 -70 87 -112 133
-141 154 -28 20 -26 16 12 -23 24 -25 40 -46 34 -46 -12 0 -93 84 -123 127
-12 18 -24 44 -27 57 -3 18 24 -5 105 -87 59 -62 120 -125 135 -142 22 -24 20
-19 -9 27 -19 31 -35 64 -35 73 0 23 -19 57 -29 51 -9 -6 -66 52 -107 109 -40
57 1 20 57 -50 57 -72 64 -61 8 12 -76 100 -74 100 20 5 95 -96 100 -85 12 28
-28 36 -59 77 -70 91 -11 14 -46 40 -78 57 -35 19 -48 30 -33 28 14 -3 28 -5
32 -5 20 -3 111 -87 128 -119 11 -20 39 -57 62 -82 28 -31 36 -36 24 -16 -66
105 -69 130 -5 41 18 -25 34 -43 37 -40 2 2 -10 22 -27 43 -36 46 -41 63 -9
36 16 -14 14 -8 -7 20 -16 21 -30 45 -31 53 -2 8 -13 27 -26 41 -19 22 -19 24
-3 13 11 -8 -29 34 -90 94 -110 107 -110 107 -45 63 93 -63 101 -66 50 -19
-26 24 -94 65 -160 97 -63 30 -123 60 -134 65 -12 7 -16 7 -12 0 4 -5 2 -12
-4 -16 -5 -3 -10 -2 -10 4 0 6 -7 8 -15 5 -8 -4 -12 -11 -8 -17 3 -6 1 -7 -6
-3 -6 4 -9 11 -6 15 2 5 -7 13 -21 20 -15 6 -23 7 -19 1 3 -5 4 -10 1 -10 -12
0 -133 76 -154 97 -25 25 -72 58 -72 51 0 -10 130 -107 202 -152 86 -52 115
-80 47 -45 -24 13 -50 22 -58 20 -8 -1 -10 2 -5 10 4 8 3 10 -5 5 -6 -4 -23 0
-38 9 -14 9 -22 12 -19 6 10 -16 -5 -14 -34 5 -25 15 -25 15 -4 -3 11 -10 31
-25 44 -34 13 -9 19 -18 13 -22 -5 -3 -47 16 -93 43 -47 27 -88 46 -92 44 -4
-3 -20 3 -35 13 -27 17 -27 17 -14 0 16 -20 67 -49 91 -51 8 -1 43 -16 76 -33
34 -18 64 -29 68 -26 3 4 6 1 6 -6 0 -7 5 -9 11 -5 8 4 7 9 -2 15 -11 7 -11 9
-1 9 7 0 10 5 7 10 -10 17 8 11 35 -11 21 -17 22 -19 3 -10 -27 13 -36 14 -28
2 3 -5 0 -13 -5 -16 -7 -5 -6 -11 5 -19 15 -10 14 -12 -4 -12 -11 0 -18 3 -15
7 2 3 -24 19 -59 34 -34 15 -79 35 -99 46 -21 10 -38 15 -38 10 0 -14 40 -36
108 -61 34 -13 61 -25 59 -27 -9 -8 -141 47 -166 69 -14 13 -53 44 -86 68 -55
40 -58 41 -30 10 17 -18 57 -53 90 -77 58 -44 55 -52 -10 -28 -20 7 -20 6 -1
-9 11 -9 31 -16 44 -16 23 0 176 -33 237 -51 24 -7 21 -8 -20 -5 l-50 5 35
-15 35 -14 -40 6 c-22 4 -56 8 -75 10 -19 2 -51 6 -70 9 -68 13 -22 -5 91 -35
103 -27 101 -30 -11 -15 -33 5 -32 4 8 -9 23 -8 74 -17 113 -21 40 -4 66 -11
59 -15 -7 -4 11 -11 41 -15 30 -4 72 -13 94 -21 39 -13 39 -13 5 -7 -19 3 -84
9 -145 13 -60 4 -92 8 -70 9 40 3 40 3 10 11 -16 4 -60 10 -98 13 l-67 5 57
-28 c68 -33 66 -39 -2 -10 l-47 20 6 -27 c4 -16 12 -60 18 -100 6 -40 15 -70
19 -67 5 3 9 -15 9 -41 0 -75 61 -228 105 -265 8 -7 15 -17 15 -23 0 -17 -50
35 -77 81 -14 23 -31 62 -38 85 -9 28 -14 34 -14 19 -1 -28 37 -105 78 -156
43 -54 38 -60 -8 -8 -68 74 -85 126 -105 307 l-12 110 -7 -107 c-8 -108 3
-164 38 -208 7 -8 22 -33 33 -55 11 -22 40 -61 64 -86 23 -25 52 -55 62 -68
20 -22 20 -22 0 -15 -19 7 -18 7 1 -16 l20 -24 -34 21 c-51 31 -132 115 -127
130 5 13 -2 31 -50 123 -27 51 -29 62 -28 160 1 63 -2 97 -6 85 -6 -14 -9 -6
-9 29 -1 71 -18 45 -25 -39 -3 -38 -3 -63 1 -55 4 8 14 -24 24 -75 10 -49 16
-91 14 -93 -2 -2 -13 13 -25 35 -14 25 -18 30 -14 13 4 -18 3 -22 -5 -15 -6 6
-17 40 -26 75 -9 42 -13 51 -11 25 l4 -40 -20 40 c-18 38 -20 27 -3 -32 3 -10
-4 0 -15 22 -16 30 -20 33 -16 13 3 -14 8 -34 12 -45 3 -10 -3 -4 -12 12 -10
17 -21 53 -25 80 l-6 50 -2 -50 c0 -32 6 -64 18 -88 21 -41 12 -52 -9 -12 -7
14 -17 25 -22 25 -15 0 -8 94 12 165 15 52 19 60 16 30 -2 -22 -1 -62 3 -90
l7 -50 8 70 c4 39 9 79 11 90 2 11 -2 34 -10 50 -11 24 -14 26 -14 10 -1 -17
-3 -17 -11 -5 -8 12 -10 12 -10 -5 0 -17 -2 -17 -10 -5 -5 8 -10 26 -11 40 -1
23 -2 22 -8 -5 -4 -17 -13 -40 -19 -50 -10 -18 -11 -18 -12 -2 0 38 -20 4 -21
-36 -1 -36 -2 -38 -9 -17 l-8 25 -1 -27 c-2 -61 -15 -61 -27 2 -8 34 -11 67
-8 72 11 17 -17 154 -41 203 -27 56 -25 67 7 39 l23 -19 -22 26 c-36 40 -27
46 14 8 l37 -34 -32 38 c-39 45 -40 53 -7 31 25 -16 32 -10 16 14 -4 8 -12 13
-17 11 -14 -3 -44 63 -43 96 2 54 0 62 -11 43 -7 -11 -7 -33 0 -64 6 -26 8
-49 5 -52 -3 -3 -5 -1 -5 4 0 6 -6 19 -14 29 -15 21 -16 30 13 -114 13 -65 13
-61 1 -61 -5 0 -10 8 -11 18 0 14 -2 14 -9 -3 -7 -16 -9 -12 -11 20 l-2 40 -6
-47 c-9 -64 -24 -76 -17 -13 l5 50 -10 -45 c-13 -56 -32 -79 -24 -30 4 21 -4
6 -20 -35 -14 -38 -40 -85 -58 -104 -17 -19 -40 -42 -49 -53 -10 -10 -18 -22
-18 -27 0 -5 -3 -18 -7 -28 -6 -16 -5 -16 11 -4 16 13 17 12 10 -15 -7 -26 -6
-27 8 -13 9 8 25 35 37 60 17 36 20 39 16 14 -3 -16 -8 -39 -11 -50 -4 -16 -3
-17 5 -5 10 13 11 13 12 0 0 -8 9 4 19 26 10 23 23 45 29 48 15 10 14 6 -10
-49 -11 -25 -18 -49 -16 -52 3 -2 8 5 12 16 3 12 11 21 16 21 6 0 6 -7 -1 -19
-15 -29 -12 -38 4 -15 20 27 32 10 17 -23 -16 -34 -15 -164 0 -212 7 -20 27
-60 45 -89 42 -65 43 -79 4 -32 -25 29 -21 20 18 -51 26 -48 50 -85 53 -83 9
5 64 -122 78 -181 7 -27 23 -77 35 -110 26 -67 40 -184 28 -230 -7 -23 -10 -9
-15 65 -5 87 -40 230 -76 310 -10 23 -10 21 -6 -13 3 -21 12 -52 21 -69 9 -17
22 -65 30 -107 15 -87 18 -189 4 -156 -5 11 -9 37 -9 57 -2 78 -32 185 -77
273 -26 50 -53 99 -62 110 l-14 20 7 -20 c4 -11 30 -96 57 -190 44 -157 48
-165 43 -103 -3 37 -8 76 -12 85 -4 12 -3 15 4 8 29 -28 47 -268 23 -305 -7
-11 -10 3 -10 46 0 49 -5 67 -25 95 -31 41 -59 130 -85 270 l-20 104 5 -100
c3 -55 7 -134 10 -175 4 -62 3 -69 -6 -41 -5 18 -16 72 -23 119 l-12 86 -13
-96 c-7 -52 -18 -102 -23 -109 -7 -10 -8 -1 -4 26 14 95 19 217 9 238 -32 69
-44 118 -22 87 12 -17 10 -9 -23 74 -10 27 -17 56 -16 65 2 9 19 -21 37 -67
18 -45 35 -81 36 -80 3 3 -21 84 -55 193 l-10 30 31 -35 c16 -19 48 -59 71
-87 22 -29 42 -53 45 -53 6 0 -5 18 -45 69 -33 44 -82 133 -82 148 1 4 12 -5
25 -22 l24 -30 -14 49 c-8 27 -12 52 -10 57 3 4 2 27 -1 51 -6 35 -9 39 -16
23 -5 -13 -6 -4 -3 25 3 24 4 42 1 40 -9 -10 -46 -130 -46 -150 0 -11 -4 -20
-10 -20 -5 0 -11 24 -12 53 l-1 52 -6 -62 c-8 -79 -21 -92 -22 -22 -1 30 -4
43 -6 29 -3 -14 -9 -29 -14 -34 -5 -6 -9 -62 -9 -125 -1 -87 -3 -111 -11 -98
-11 18 -7 184 5 257 6 31 5 32 -4 11 -6 -14 -15 -47 -20 -75 l-9 -51 3 62 c1
34 -1 60 -5 57 -13 -8 -20 52 -9 81 6 15 8 30 6 32 -5 6 -27 -65 -50 -162 -8
-36 -14 -50 -16 -35 l-1 25 -10 -24 c-14 -35 -18 -22 -9 32 8 56 0 53 -17 -6
l-13 -42 4 57 4 57 -24 -26 c-13 -14 -24 -33 -24 -41 0 -13 3 -12 15 4 8 10
15 14 15 8 0 -5 -7 -19 -15 -30 -20 -27 -20 -54 0 -28 14 17 14 15 1 -18 -12
-30 -13 -51 -6 -95 6 -32 10 -59 10 -61 0 -2 -4 0 -10 3 -5 3 -10 17 -10 31 0
49 -20 12 -21 -39 -1 -29 -4 -41 -6 -27 -3 14 -11 32 -19 41 -10 11 -17 50
-21 110 l-6 94 -30 -88 c-16 -49 -31 -86 -34 -84 -4 5 20 107 34 144 6 16 5
17 -12 3 -17 -14 -17 -13 -10 10 4 14 24 62 45 108 21 45 37 82 35 82 -2 0
-29 -47 -59 -104 -39 -72 -56 -116 -57 -142 -1 -49 -7 -35 -17 41 l-9 60 -7
-50 c-12 -83 -26 -130 -57 -184 -39 -68 -55 -66 -18 3 16 29 36 89 44 132 9
44 17 88 19 99 3 11 5 24 5 28 1 5 5 6 10 2 5 -3 13 0 17 6 4 8 3 9 -4 5 -39
-24 41 103 116 185 28 31 49 59 45 62 -3 4 6 11 20 16 14 5 28 15 32 20 3 6
10 11 15 11 5 0 -7 -37 -26 -82 -35 -81 -54 -139 -40 -127 4 4 8 15 10 26 3
11 23 56 46 99 22 43 39 72 37 64 -18 -65 -18 -65 5 -29 49 76 114 138 69 65
-32 -51 -25 -54 11 -5 18 24 31 49 30 56 -4 18 39 124 48 118 4 -3 10 4 13 14
3 11 0 18 -7 16 -44 -12 -57 -20 -63 -44 -8 -34 -63 -119 -82 -126 -11 -4 -11
-3 -2 9 7 8 10 19 7 25 -3 5 12 31 34 57 36 43 47 64 36 64 -9 0 -86 -112 -81
-120 2 -4 -2 -13 -10 -20 -8 -7 -15 -10 -15 -6 0 4 -10 0 -23 -9 -13 -8 -26
-13 -28 -10 -3 3 -21 -11 -39 -30 -19 -19 -38 -35 -44 -35 -6 0 10 21 36 48
25 26 62 71 82 101 20 29 36 50 36 47 0 -12 -32 -70 -48 -89 -8 -9 -13 -20
-10 -22 3 -3 24 16 46 42 36 44 41 56 57 153 25 155 28 164 34 115 8 -52 1
-146 -9 -140 -4 3 -10 -5 -13 -17 l-6 -21 21 20 c17 18 21 34 22 104 0 46 -2
102 -6 124 l-7 40 16 -35 c10 -22 16 -63 16 -108 0 -52 3 -69 10 -56 5 9 7 47
5 85 -3 38 -1 66 3 63 5 -3 10 -20 11 -37 1 -18 5 6 8 53 l6 85 2 -70 c1 -38
5 -88 9 -110 6 -36 7 -38 14 -15 3 14 5 43 2 65 -2 22 1 60 6 85 10 42 10 40
6 -27 -2 -42 0 -73 6 -73 5 0 10 30 10 68 1 37 4 57 6 45 2 -13 9 -23 14 -23
5 0 9 -18 9 -40 0 -26 4 -39 12 -38 7 2 15 -13 18 -35 11 -60 23 -58 16 3 -4
30 -9 73 -12 95 l-4 40 14 -35 c8 -19 15 -57 15 -83 1 -27 5 -46 10 -43 4 3 6
18 3 32 -4 20 -2 25 8 19 9 -6 11 3 6 36 -7 43 -6 43 9 19 l16 -25 -7 35 c-3
19 -21 67 -40 106 -51 106 -40 113 13 9 26 -49 46 -94 45 -98 -3 -9 26 -67 34
-67 2 0 0 9 -6 19 -15 29 -12 39 5 17 11 -14 15 -16 15 -5 1 8 12 -7 26 -33
30 -59 40 -63 15 -7 -19 41 -41 71 -41 54 0 -5 -13 11 -28 35 -16 25 -25 47
-21 50 5 3 -9 35 -31 70 -22 36 -39 70 -40 75 0 15 57 -73 92 -140 17 -33 43
-76 58 -95 15 -19 30 -44 34 -56 3 -11 20 -34 38 -50 l31 -29 -26 36 c-34 46
-70 126 -62 140 4 5 -1 21 -10 35 -9 13 -13 29 -10 34 3 6 2 10 -3 10 -10 0
-92 113 -92 126 0 4 10 -1 23 -12 l22 -19 -19 22 c-10 12 -23 21 -28 20 -6 -1
-19 14 -30 33 -11 19 -23 37 -27 40 -20 14 -93 121 -87 128 10 9 169 -155 162
-166 -3 -6 2 -16 12 -23 16 -13 16 -13 2 6 -14 18 -14 19 2 7 9 -8 15 -19 12
-25 -2 -7 34 -57 82 -112 47 -55 64 -78 38 -50 -65 65 -133 125 -115 100 30
-41 137 -147 162 -160 28 -15 89 -29 89 -20 0 2 -13 11 -29 20 -32 16 -87 72
-148 150 -57 73 -61 88 -9 30 25 -27 51 -50 58 -50 7 0 12 -7 11 -16 -2 -8 14
-31 34 -50 33 -29 34 -30 10 -3 -28 32 -36 50 -14 38 8 -5 8 -2 -2 9 -11 14
-11 20 0 34 8 9 9 14 4 11 -6 -4 -12 3 -12 14 -2 20 -2 20 20 1 12 -10 31 -25
42 -33 17 -14 17 -12 -3 16 -12 17 -18 34 -14 38 4 4 2 6 -4 4 -6 -1 -24 13
-40 32 l-29 34 40 -23 c22 -14 51 -34 65 -45 14 -11 8 -3 -12 20 -62 66 -43
59 47 -17 47 -39 85 -72 85 -73 0 -1 -10 -2 -22 -2 -13 0 -45 15 -73 35 l-50
35 40 -45 c26 -29 49 -46 65 -46 14 -1 45 -11 70 -22 25 -11 52 -20 60 -20 8
0 -4 7 -28 16 -54 19 -49 27 9 14 l43 -10 -30 24 c-16 14 -57 41 -92 61 -62
38 -117 85 -117 101 0 5 -28 36 -63 68 -34 32 -60 60 -57 63 2 3 26 -15 53
-40 65 -61 149 -114 192 -122 33 -6 32 -4 -20 25 -30 18 -74 48 -96 68 -23 20
-59 46 -80 59 -52 31 -141 108 -133 116 4 4 31 -13 60 -36 149 -118 334 -240
313 -206 -5 7 -2 9 8 6 8 -4 15 -1 15 7 0 7 -7 12 -15 11 -17 -1 -25 31 -10
41 7 3 8 1 4 -5 -5 -8 -1 -10 10 -5 10 4 15 2 11 -3 -3 -5 3 -10 14 -10 10 0
19 1 19 3 0 8 -83 43 -103 43 -13 0 -38 10 -55 23 -104 75 -122 87 -122 83 0
-3 39 -37 88 -77 106 -88 113 -95 84 -80 -38 20 -222 171 -244 202 -11 15 -35
33 -52 40 -56 23 -149 81 -139 88 5 3 -9 22 -32 41 l-40 34 33 -35 c18 -19 30
-38 26 -41 -3 -4 21 -25 53 -49 97 -70 87 -75 -17 -7 l-45 29 50 -47 c57 -55
23 -37 -60 30 l-50 41 49 -60 c46 -57 45 -56 -24 15 -181 189 -267 273 -293
287 -45 23 -24 27 24 4 65 -32 59 -16 -7 18 -33 16 -54 30 -49 31 6 0 -1 9
-15 20 -23 18 -19 18 46 -4 39 -13 81 -29 93 -35 15 -8 21 -8 21 -1 0 6 -15
17 -32 25 l-33 14 28 1 c15 0 27 5 27 11 0 6 7 8 16 5 8 -3 12 -2 9 4 -3 6
-18 8 -33 5 -15 -3 -21 -2 -14 1 6 3 9 10 6 16 -4 6 2 8 17 4 23 -7 23 -7 5 8
-14 11 -15 16 -6 16 11 0 11 3 2 12 -17 17 -15 28 5 21 30 -12 2 18 -31 33
-17 7 -24 14 -16 14 10 1 9 4 -5 10 -17 7 -14 9 15 10 37 2 34 4 -14 15 -22 5
-26 9 -16 15 9 5 -7 9 -43 9 -31 0 -57 -5 -57 -10 0 -5 -5 -9 -11 -9 -5 0 -8
4 -4 9 3 6 -5 15 -17 21 -22 11 -22 10 -4 -4 19 -16 19 -16 -5 -17 l-24 0 25
-11 c14 -6 20 -12 14 -14 -6 -3 -26 2 -45 10 -25 11 -29 16 -14 17 14 1 11 3
-10 9 -16 4 -39 11 -50 16 -17 7 -18 6 -7 -8 9 -12 10 -18 2 -23 -6 -4 -14 -4
-17 -1 -4 3 0 6 8 6 7 0 -11 16 -41 36 -30 20 -67 48 -82 62 -29 26 -38 49
-15 36 6 -4 0 5 -14 20 -14 15 -33 28 -41 30 -17 2 -89 63 -104 87 -4 8 15 -5
43 -28 28 -24 54 -43 59 -43 4 0 15 -7 24 -15 14 -12 19 -13 35 -1 17 12 15
15 -28 44 -25 18 -48 41 -52 51 -3 11 -13 25 -23 33 -14 11 -14 8 2 -17 11
-16 26 -41 35 -55 l15 -25 -24 20 c-14 10 -42 35 -63 55 -21 19 -43 35 -50 35
-19 2 -204 92 -211 104 -5 7 2 11 16 12 l23 0 -22 9 c-32 13 -29 23 5 16 21
-5 24 -4 12 5 -28 20 50 0 109 -28 31 -15 61 -29 66 -31 6 -3 1 6 -10 19 -11
13 -16 21 -11 17 12 -10 35 22 36 50 0 26 45 76 60 67 6 -4 7 -11 4 -17 -5 -7
1 -9 16 -5 17 4 20 3 11 -6 -17 -17 -13 -31 4 -17 9 7 15 8 15 2 0 -19 32 -22
63 -7 17 8 33 13 35 10 3 -3 0 -5 -6 -5 -7 0 -12 -4 -12 -10 0 -5 15 -10 33
-9 17 0 26 3 18 6 -11 4 -8 10 10 24 18 15 19 18 5 12 -13 -4 -17 -3 -12 5 4
7 1 12 -8 12 -8 0 -18 -4 -21 -10 -3 -5 -11 -10 -17 -10 -6 0 6 13 27 30 20
16 41 27 46 24 5 -2 20 3 34 12 14 9 28 14 31 11 3 -3 -8 -13 -25 -22 -17 -8
-31 -18 -31 -21 0 -2 13 2 30 11 31 16 76 22 51 6 -22 -14 4 -22 35 -11 34 13
46 4 13 -10 -21 -9 -19 -10 14 -5 20 3 53 8 73 11 57 10 33 -11 -28 -25 -29
-6 -60 -16 -68 -22 -12 -8 -9 -9 10 -5 14 3 43 8 65 11 30 4 35 3 20 -4 -11
-5 -33 -12 -48 -16 -55 -12 -16 -26 56 -20 58 4 67 3 47 -6 -14 -6 -42 -11
-63 -11 -32 1 -36 -2 -27 -13 8 -10 18 -11 36 -4 14 5 23 5 20 0 -7 -10 39
-32 79 -37 43 -6 95 -24 95 -34 0 -4 -24 -2 -52 6 -67 18 -77 18 -51 -1 11 -8
47 -21 79 -29 58 -15 58 -15 13 -11 -26 2 -66 11 -90 19 l-44 15 25 -19 c14
-11 44 -25 67 -31 24 -6 40 -15 38 -20 -3 -4 9 -13 27 -18 34 -9 20 -15 -32
-12 -21 1 -18 -2 15 -18 22 -11 33 -20 25 -20 -12 -1 -11 -4 3 -12 9 -6 15
-14 12 -20 -4 -5 -1 -9 5 -9 7 0 10 -6 7 -12 -2 -7 3 -18 11 -24 22 -16 24
-44 4 -44 -10 0 1 -11 23 -25 39 -24 34 -36 -7 -14 -13 7 -23 8 -30 1 -7 -7 3
-19 31 -37 22 -15 38 -31 35 -36 -3 -5 0 -9 6 -9 16 0 120 -90 117 -100 -1 -5
7 -16 18 -24 19 -15 19 -16 -7 -7 -70 25 -197 100 -171 101 6 0 15 -4 18 -10
3 -5 11 -10 16 -10 6 0 7 5 4 10 -11 18 12 10 31 -11 18 -20 65 -49 80 -49 8
0 -56 50 -111 86 -22 15 -52 38 -67 52 -16 14 -28 22 -28 16 0 -5 21 -24 46
-43 24 -19 42 -36 39 -39 -3 -3 -24 10 -48 28 l-42 33 29 -31 c29 -31 25 -45
-4 -19 -8 6 -5 1 7 -13 12 -14 21 -29 20 -34 -1 -5 7 -10 18 -11 11 -1 34 -9
50 -18 38 -21 24 -22 -15 -2 -17 9 -30 11 -30 5 0 -5 -7 -10 -15 -10 -21 0
-19 -9 8 -31 20 -17 20 -19 2 -13 l-20 6 20 -17 c11 -9 20 -21 20 -27 0 -6 6
-13 14 -16 9 -3 11 0 6 7 -4 7 15 -3 41 -22 27 -18 78 -48 114 -66 36 -18 70
-38 75 -43 6 -6 -3 -4 -20 5 -72 35 -125 57 -142 57 -9 0 24 -21 75 -47 51
-25 90 -48 88 -50 -1 -2 -42 15 -91 37 -48 22 -91 40 -97 40 -15 0 -68 40 -68
51 0 6 12 1 26 -10 15 -12 31 -21 37 -21 5 0 -9 14 -31 30 -23 17 -47 39 -54
50 -7 11 -16 20 -21 20 -4 0 -5 -5 -1 -12 5 -8 1 -9 -12 -5 -17 7 -17 6 2 -10
11 -10 31 -33 43 -51 17 -23 51 -46 127 -81 57 -27 104 -52 104 -55 0 -7 -37
7 -99 39 -74 37 -62 23 19 -25 39 -22 70 -43 70 -45 0 -5 -38 9 -73 26 -19 9
-18 7 3 -10 l25 -21 -39 16 c-22 9 -64 31 -93 50 -29 18 -53 32 -53 29 0 -3
32 -25 70 -50 39 -25 70 -47 70 -51 0 -3 -30 11 -67 30 -37 20 -69 34 -71 31
-2 -2 19 -16 48 -32 29 -15 60 -35 69 -43 9 -8 30 -23 46 -33 l30 -18 -30 25
c-41 35 -28 33 58 -10 39 -20 66 -30 59 -22 -6 8 -30 23 -52 33 -22 10 -38 20
-36 22 7 8 126 -49 121 -57 -3 -4 20 -25 50 -46 55 -37 72 -54 36 -34 -11 5
-32 15 -48 21 l-28 10 29 -30 c17 -17 26 -31 22 -31 -5 0 -3 -7 4 -15 21 -25
4 -17 -43 23 -25 20 -61 45 -79 55 l-33 19 25 -21 c39 -32 12 -25 -70 19 -41
22 -65 32 -53 23 11 -10 54 -35 93 -56 40 -21 70 -41 67 -43 -3 -3 -30 9 -61
27 -32 17 -59 29 -62 26 -6 -5 79 -57 95 -57 5 0 31 -18 56 -40 25 -22 50 -40
55 -40 4 0 35 -20 68 -45 33 -25 82 -52 109 -60 61 -19 60 -19 38 5 -10 11
-15 20 -11 20 4 0 19 -9 33 -20 14 -11 31 -20 37 -20 6 0 -13 16 -41 35 -29
19 -56 35 -61 35 -15 0 -94 61 -88 67 3 4 14 -1 23 -9 18 -16 104 -62 158 -85
27 -12 28 -12 11 2 -11 8 -25 15 -30 15 -6 0 -4 5 4 11 12 8 10 9 -7 4 -13 -3
-23 -3 -23 2 0 4 -19 16 -43 26 -41 17 -97 59 -97 73 0 4 8 0 18 -8 20 -17 92
-61 92 -56 0 2 -29 26 -65 53 -35 28 -65 54 -65 59 0 5 6 4 13 -1 100 -75 102
-76 37 -14 -36 35 -58 58 -48 52 11 -8 18 -9 23 -1 3 5 3 10 -2 10 -4 0 -39
25 -78 56 -86 69 -80 64 -68 64 6 0 35 -18 65 -41 l53 -40 -53 48 c-53 48 -66
71 -35 59 14 -6 14 -3 -3 15 l-19 22 23 -12 c34 -18 26 -5 -15 25 -21 14 -31
24 -21 21 11 -4 15 0 14 11 -2 9 -9 18 -17 20 -11 3 -11 1 1 -8 13 -10 13 -11
0 -7 -8 2 -15 10 -15 18 0 8 -4 14 -10 15 -21 1 -168 75 -210 105 -50 36 -55
50 -8 22 99 -59 165 -95 169 -91 2 3 -16 19 -41 37 -25 18 -45 34 -45 37 0 6
12 -1 69 -39 33 -23 40 -32 30 -39 -10 -7 -8 -8 7 -3 13 3 26 0 33 -9 7 -8 19
-12 28 -9 12 5 6 11 -22 25 -20 11 -35 22 -32 24 6 6 134 -45 172 -69 24 -15
21 -11 -9 16 -22 19 -45 33 -51 31 -6 -3 -29 9 -51 27 -49 39 -54 44 -27 30
12 -6 25 -11 30 -11 4 1 -9 10 -30 21 -61 32 -37 32 47 0 42 -16 74 -25 70
-20 -3 5 -1 9 5 9 5 0 13 -4 16 -10 3 -5 16 -15 28 -20 15 -8 13 -3 -8 14 -16
14 -34 25 -40 24 -16 -3 -128 33 -122 39 3 3 22 0 42 -7 20 -7 39 -10 42 -6 3
3 -8 8 -23 12 -32 8 -104 42 -104 49 0 3 21 -4 48 -14 26 -10 67 -21 92 -25
35 -5 28 -1 -30 17 -66 20 -126 46 -109 47 3 0 39 -11 80 -23 108 -34 127 -38
134 -27 3 6 -4 10 -17 10 -27 0 -181 50 -175 57 3 2 33 -5 68 -16 71 -24 72
-24 65 -12 -4 5 4 7 16 4 19 -4 20 -3 8 7 -13 9 -12 11 5 6 11 -2 36 -7 55
-10 29 -5 26 -3 -14 12 -67 25 -74 45 -12 41 25 -2 46 0 46 5 0 5 8 19 18 30
17 21 17 21 -4 4 -23 -20 -99 -24 -124 -8 -17 11 -17 11 57 13 29 1 53 7 53
12 0 6 -20 9 -43 8 -32 -2 -37 -1 -22 6 11 5 34 10 50 11 35 2 137 49 143 67
2 7 -24 -3 -58 -22 -66 -38 -70 -39 -70 -27 0 16 114 66 157 68 24 1 50 7 56
13 9 9 7 11 -8 6 -17 -5 -16 -3 4 12 42 31 165 95 151 79 -17 -21 -8 -20 32 3
24 15 49 19 91 18 l57 -2 0 37 c0 29 4 36 18 34 9 -2 20 2 24 8 5 7 8 6 9 -4
0 -8 4 -4 8 10 4 15 14 24 24 24 22 -2 24 61 2 70 -22 8 -19 21 17 63 l32 38
-31 -29 c-17 -15 -37 -26 -44 -24 -25 8 142 149 175 148 6 -1 -1 -8 -16 -16
-16 -8 -28 -17 -28 -20 0 -2 9 0 19 6 35 18 35 11 0 -22 -20 -18 -28 -27 -19
-20 23 17 35 15 20 -3 -10 -12 -7 -12 19 1 17 8 33 20 37 26 4 6 -1 6 -14 -1
-31 -17 -37 -13 -17 9 10 11 14 20 9 20 -5 0 10 9 34 20 46 21 99 22 99 3 0
-7 -7 -15 -14 -17 -8 -3 -11 -1 -8 4 4 6 -1 7 -11 3 -11 -4 -13 -8 -6 -11 7
-2 9 -9 5 -15 -4 -6 10 -1 31 11 46 27 45 27 39 0 -5 -23 -5 -23 10 -3 16 20
16 20 17 -3 0 -13 4 -20 10 -17 16 10 11 48 -10 75 -17 23 -26 25 -103 27
-102 3 -201 -27 -239 -72 -21 -24 -26 -26 -31 -11 -4 9 -3 15 2 12 5 -3 14 1
21 9 7 8 10 15 8 15 -34 0 -202 -32 -230 -44 -20 -9 -43 -13 -51 -10 -8 3 -43
-9 -77 -26 -34 -17 -68 -29 -76 -26 -7 3 -16 1 -19 -4 -4 -6 -11 -10 -17 -10
-7 0 -7 5 1 14 10 11 3 11 -46 0 -72 -17 -86 -16 -48 2 l30 14 -35 -7 c-19 -3
-52 -7 -73 -8 -34 0 -36 1 -20 13 20 14 108 42 132 42 14 0 14 -2 1 -11 -11
-7 -6 -8 19 -4 25 5 32 4 26 -5 -9 -15 23 -6 78 21 20 11 37 17 37 14 0 -3 13
1 29 9 16 9 31 13 34 10 3 -3 28 1 56 10 28 8 51 11 51 6 0 -5 15 -4 33 2 63
19 74 21 57 8 -20 -15 44 -5 130 21 36 11 86 23 110 27 59 11 172 7 198 -7z
m-1619 -5 l33 -12 -28 -13 c-16 -7 -45 -20 -64 -28 l-35 -14 25 22 c20 18 21
21 5 14 -105 -41 -119 -46 -105 -32 8 8 44 26 80 40 81 33 66 35 -29 4 -40
-13 -66 -18 -59 -11 16 15 96 43 123 43 11 0 35 -6 54 -13z m-1429 -22 c0 -9
-5 -14 -12 -12 -18 6 -21 28 -4 28 9 0 16 -7 16 -16z m130 6 c0 -5 -2 -10 -4
-10 -3 0 -8 5 -11 10 -3 6 -1 10 4 10 6 0 11 -4 11 -10z m2830 5 c0 -10 -92
-44 -106 -38 -11 4 -9 8 10 19 14 7 38 15 53 17 16 2 31 5 36 6 4 0 7 -1 7 -4z
m-1475 -15 c-4 -6 6 -7 27 -3 41 7 34 -2 -18 -22 -21 -9 -28 -13 -14 -10 14 4
57 8 95 11 59 4 67 3 50 -7 -11 -7 -59 -14 -107 -15 -48 -1 -96 -5 -107 -9
-37 -12 -16 28 25 46 46 21 57 23 49 9z m-1525 -4 c0 -3 -4 -8 -10 -11 -5 -3
-10 -1 -10 4 0 6 5 11 10 11 6 0 10 -2 10 -4z m1770 -1 c0 -3 -26 -18 -57 -34
-32 -17 -54 -30 -50 -31 4 0 24 8 45 19 56 29 113 51 108 43 -2 -4 31 -7 75
-6 44 1 78 0 76 -2 -8 -9 -149 -46 -153 -41 -3 3 14 12 38 20 24 9 34 16 23
16 -11 1 -49 -13 -83 -29 -70 -33 -88 -37 -58 -15 25 19 13 19 -24 0 -18 -9
-40 -12 -60 -8 -32 6 -32 6 36 39 70 33 84 38 84 29z m285 -4 c-13 -13 -130
-51 -152 -50 -10 0 16 13 57 28 80 30 110 37 95 22z m50 -11 c-20 -22 -123
-76 -131 -68 -2 3 23 19 55 37 33 17 63 36 66 41 4 6 11 10 17 10 6 0 3 -9 -7
-20z m-1620 -10 c38 -9 38 -10 -14 -5 -30 2 -59 9 -65 15 -11 12 -8 11 79 -10z
m1675 6 c0 -6 -162 -97 -166 -93 -5 5 67 54 116 79 34 17 50 22 50 14z m645
-41 c-27 -24 -54 -41 -60 -38 -5 4 -7 2 -2 -2 4 -5 -4 -20 -17 -34 -14 -15
-32 -51 -41 -81 l-15 -55 5 50 c3 28 15 63 27 80 l21 30 -29 -25 c-59 -50 -74
-73 -74 -118 0 -58 -14 -46 -35 30 -13 49 -14 69 -6 91 6 16 15 26 20 22 6 -3
14 3 20 12 19 33 11 4 -9 -34 -11 -21 -20 -47 -19 -58 0 -12 6 -5 15 20 15 41
52 87 64 80 3 -2 17 2 31 9 13 7 29 11 35 9 5 -2 22 10 38 26 17 17 38 29 54
29 25 0 24 -3 -23 -43z m-2775 10 c0 -8 -7 -15 -15 -15 -8 0 -15 7 -15 15 0 8
7 15 15 15 8 0 15 -7 15 -15z m158 -43 c21 -33 10 -27 -29 15 -26 28 -28 33
-10 22 14 -9 31 -25 39 -37z m317 34 c48 -11 53 -14 25 -14 -19 0 -53 5 -75
13 -53 17 -25 18 50 1z m1635 -15 c-97 -40 -105 -42 -95 -32 19 20 90 50 115
50 19 0 15 -4 -20 -18z m-2060 -11 c0 -5 -2 -10 -4 -10 -3 0 -8 5 -11 10 -3 6
-1 10 4 10 6 0 11 -4 11 -10z m485 -7 l50 -8 -45 -6 -45 -6 40 -2 c22 -1 47
-6 55 -12 11 -8 -3 -9 -50 -5 -42 3 -56 2 -40 -4 14 -4 48 -9 75 -9 36 -1 46
-4 35 -11 -8 -5 -26 -10 -40 -11 -14 -1 -2 -6 25 -10 44 -7 42 -7 -23 -5 -64
3 -71 2 -60 -12 11 -13 8 -12 -19 1 -17 9 -35 22 -39 28 -5 8 -1 8 13 0 13 -6
31 -7 49 -1 16 4 21 9 12 9 -27 1 -68 23 -62 32 3 5 -1 9 -8 10 -7 0 -4 4 7 9
18 8 18 9 -5 9 -14 1 -32 6 -40 12 -15 10 -1 10 115 -8z m1985 -64 c-18 -42
-25 -28 -9 18 7 21 14 32 17 25 2 -7 -2 -26 -8 -43z m-47 -10 c-6 -6 -7 3 -4
23 4 28 6 29 9 9 2 -13 0 -27 -5 -32z m-2341 -14 c11 -20 11 -20 -11 0 -13 11
-28 29 -33 40 -11 20 -11 20 11 0 13 -11 28 -29 33 -40z m2315 33 c-3 -8 -6
-5 -6 6 -1 11 2 17 5 13 3 -3 4 -12 1 -19z m-2202 -8 c3 -5 1 -10 -4 -10 -6 0
-11 5 -11 10 0 6 2 10 4 10 3 0 8 -4 11 -10z m2385 -75 c-6 -57 -24 -63 -27
-10 -2 31 0 35 7 20 8 -20 9 -20 9 1 1 17 9 34 16 34 0 0 -2 -20 -5 -45z
m-1895 10 c6 -3 -19 -3 -54 0 -35 3 -85 6 -110 7 l-46 1 45 6 c42 6 142 -3
165 -14z m-518 -51 c-5 -5 -47 49 -47 61 0 4 12 -8 26 -25 15 -17 24 -33 21
-36z m118 56 c3 -5 2 -10 -4 -10 -5 0 -13 5 -16 10 -3 6 -2 10 4 10 5 0 13 -4
16 -10z m180 -11 c25 -11 44 -23 41 -26 -8 -8 25 -31 119 -80 76 -41 78 -43
40 -39 -34 4 -37 2 -21 -7 38 -25 67 -49 62 -55 -3 -2 -13 1 -22 9 -16 13 -16
12 -5 -8 18 -34 1 -28 -49 17 -24 22 -46 40 -48 40 -12 0 46 -58 77 -77 40
-24 111 -104 74 -85 -10 6 -30 22 -45 36 -14 14 -43 38 -64 52 -34 23 -32 18
21 -35 82 -84 56 -77 -40 12 l-79 72 62 -74 c34 -41 62 -79 62 -84 0 -6 -11 3
-25 19 -14 16 -25 25 -25 20 0 -5 -7 -3 -15 4 -8 7 -15 9 -15 4 0 -4 -21 12
-47 36 l-47 45 45 -54 c55 -66 101 -132 96 -137 -2 -2 -38 39 -81 90 -42 52
-88 102 -102 111 -14 9 -22 21 -18 27 4 7 3 8 -4 4 -7 -4 -12 -1 -12 6 -1 7
-21 38 -45 68 -24 30 -42 56 -40 58 2 3 28 -13 57 -34 43 -30 48 -32 29 -11
-39 43 -15 31 39 -19 28 -26 50 -44 50 -40 0 4 -12 18 -27 31 -16 13 -25 26
-22 29 3 3 25 -11 50 -31 l44 -37 -30 34 c-16 18 -46 48 -65 67 -24 23 -29 32
-15 27 20 -7 20 -7 1 14 -24 27 -20 27 39 1z m950 -9 c13 -5 14 -9 5 -9 -8 0
-24 4 -35 9 -13 5 -14 9 -5 9 8 0 24 -4 35 -9z m-1205 -20 c14 -10 22 -21 19
-24 -2 -3 -18 6 -34 19 -35 29 -22 33 15 5z m-170 -5 c7 -9 8 -15 2 -15 -5 0
-12 7 -16 15 -3 8 -4 15 -2 15 2 0 9 -7 16 -15z m360 5 c8 -5 11 -10 5 -10 -5
0 -17 5 -25 10 -8 5 -10 10 -5 10 6 0 17 -5 25 -10z m1029 -12 c13 -5 22 -11
19 -13 -3 -3 -25 4 -49 15 -41 19 -22 18 30 -2z m591 -101 c0 -6 -17 9 -37 33
-56 64 -62 83 -9 27 25 -27 46 -54 46 -60z m-1909 60 c12 -22 12 -22 -10 -3
-11 11 -21 23 -21 28 0 14 19 -1 31 -25z m1855 -52 c21 -19 35 -34 29 -34 -5
0 -28 15 -49 34 -22 19 -35 35 -29 35 5 0 27 -16 49 -35z m-1637 -7 c20 -18
28 -24 18 -12 -30 36 -18 36 26 0 23 -19 43 -44 44 -56 2 -18 0 -20 -14 -9
-46 39 -32 4 41 -105 46 -66 96 -144 111 -173 16 -28 40 -58 54 -67 15 -9 42
-30 61 -47 33 -30 34 -30 5 -14 -16 10 -40 26 -51 37 -16 14 -23 16 -26 7 -2
-7 -37 42 -78 109 -40 67 -113 175 -161 242 -87 119 -98 150 -30 88z m1641
-47 c25 -22 43 -42 40 -44 -3 -3 -28 14 -55 38 -28 24 -45 44 -40 44 6 0 30
-17 55 -38z m11 -51 c30 -16 48 -30 41 -30 -17 0 -89 37 -97 50 -9 15 -3 13
56 -20z m-1266 -1 c11 -17 -1 -21 -15 -4 -8 9 -8 15 -2 15 6 0 14 -5 17 -11z
m127 -47 c14 -13 31 -21 36 -18 5 3 16 -2 23 -12 13 -16 13 -16 -5 -2 -18 14
-18 13 -11 -9 8 -26 5 -25 -48 11 -15 11 -25 23 -22 28 3 5 -4 14 -15 20 -11
6 -20 16 -20 22 0 11 16 1 62 -40z m28 -86 c0 -5 -20 10 -45 34 -25 24 -45 48
-45 53 0 4 20 -11 45 -34 25 -23 45 -47 45 -53z m-55 23 c26 -26 32 -37 18
-30 -18 9 -71 71 -61 71 2 0 22 -19 43 -41z m1200 -21 c13 -5 -1 -6 -40 -3
-33 3 -64 10 -68 14 -11 11 80 2 108 -11z m-1145 -63 c0 -8 -68 36 -82 52 -7
10 8 2 35 -16 26 -17 47 -34 47 -36z m694 20 c23 -13 55 -38 71 -55 16 -16 33
-30 39 -30 6 0 -10 21 -34 47 l-45 47 63 -53 c34 -29 62 -56 62 -59 0 -3 -5
-1 -12 6 -24 24 -31 11 -7 -14 21 -24 22 -26 3 -16 -11 6 -43 31 -70 55 -27
24 -66 53 -86 66 -36 21 -46 31 -32 31 3 0 24 -11 48 -25z m-509 -63 c-5 -5
-63 26 -69 37 -4 5 12 0 33 -12 22 -12 38 -23 36 -25z m656 11 c10 -12 5 -11
-18 6 -18 12 -33 24 -33 27 0 9 37 -15 51 -33z m-606 -51 c-6 -6 -74 18 -80
28 -3 5 14 2 39 -7 25 -10 43 -19 41 -21z m-405 -89 c0 -8 -9 0 -50 45 l-45
47 48 -45 c26 -24 47 -45 47 -47z m54 -26 l48 -62 -51 53 c-51 54 -92 111 -59
84 8 -6 36 -40 62 -75z m106 -28 c36 -33 56 -55 45 -50 -28 14 -132 110 -120
110 6 1 39 -26 75 -60z m858 -43 c26 -13 58 -33 72 -45 16 -14 -1 -8 -45 15
-70 37 -96 54 -82 54 4 0 29 -11 55 -24z m-281 -198 c50 -56 101 -116 114
-133 l23 -30 -33 30 c-32 29 -33 29 -22 5 8 -17 1 -13 -21 14 -58 69 -81 92
-47 47 18 -24 33 -52 34 -62 1 -10 20 -45 44 -78 54 -77 47 -79 -10 -3 -24 31
-52 63 -61 70 -10 7 -18 19 -18 25 0 7 7 3 15 -7 8 -11 18 -17 21 -13 3 3 -11
26 -31 51 -43 52 -57 61 -25 15 12 -16 20 -32 17 -35 -3 -3 -18 13 -33 35 -16
21 -38 45 -49 51 -18 11 -17 10 3 -12 24 -27 29 -43 10 -32 -8 4 -10 3 -5 -2
5 -5 12 -8 15 -7 10 2 32 -18 32 -29 0 -6 -8 -4 -17 3 -16 13 -17 12 -4 -3 7
-10 17 -15 22 -13 4 3 13 -3 18 -14 13 -23 -7 -24 -33 -2 -50 42 -154 209
-114 185 7 -4 8 -3 4 4 -5 8 -13 9 -25 2 -14 -7 -23 -4 -37 13 l-19 22 24 -20
c23 -19 24 -19 17 -1 -5 16 -4 17 9 6 12 -10 15 -10 15 0 0 9 7 7 20 -5 11
-10 20 -13 20 -8 0 6 -6 16 -14 22 -8 6 -16 20 -19 31 -11 42 68 -18 160 -122z
m-1356 105 c13 -16 12 -17 -3 -4 -17 13 -22 21 -14 21 2 0 10 -8 17 -17z
m1130 -40 c14 -13 32 -23 39 -21 7 2 14 -5 15 -15 2 -10 -1 -15 -8 -11 -7 3
-5 0 4 -8 17 -14 99 -113 114 -137 5 -9 4 -12 -2 -8 -6 4 3 -19 19 -51 l31
-57 -35 38 c-35 36 -66 54 -36 20 16 -18 58 -97 58 -108 0 -3 -4 -3 -10 0 -6
4 -7 -6 -4 -25 11 -52 -2 -33 -35 53 -31 80 -60 140 -61 124 0 -4 9 -26 21
-48 11 -22 18 -46 16 -52 -2 -7 3 -27 10 -46 18 -42 10 -52 -12 -14 l-16 28 5
-35 c2 -19 10 -77 17 -129 10 -69 10 -96 2 -98 -6 -2 -9 -12 -6 -23 3 -10 0
-27 -6 -37 -8 -15 -11 -10 -12 27 l-1 45 -9 -42 c-8 -41 -28 -89 -29 -68 0 6
7 34 15 64 9 33 11 72 7 105 l-6 51 -11 -40 c-11 -38 -12 -35 -12 45 1 55 -5
102 -16 133 -9 26 -17 62 -17 80 0 18 -5 39 -11 47 -8 12 -9 10 -4 -8 10 -35
13 -212 4 -252 -5 -19 -4 -39 0 -43 17 -17 -38 -157 -73 -187 -14 -11 -16 -10
-10 5 5 13 4 16 -5 11 -8 -6 -7 2 3 23 9 17 19 31 22 31 2 0 0 -9 -6 -21 -7
-11 -9 -23 -6 -26 7 -8 56 94 57 119 0 13 -2 55 -5 93 -4 44 -3 63 2 50 7 -16
10 -10 14 30 4 47 0 71 -21 105 -5 8 -23 44 -40 80 -16 36 -50 88 -74 115 -24
28 -49 61 -56 75 l-12 25 18 -25 c31 -43 117 -135 110 -117 -4 9 -9 23 -12 30
-3 7 2 13 13 14 13 1 27 -12 42 -38 12 -22 24 -38 26 -36 3 3 -5 22 -18 43
-18 31 -19 36 -4 25 23 -19 46 -64 50 -100 2 -15 11 -39 21 -52 14 -20 16 -20
10 -4 -4 11 -16 49 -27 85 -11 36 -33 82 -49 103 -17 20 -27 37 -23 37 12 0
78 -63 80 -77 3 -18 25 -45 32 -38 3 3 -3 14 -13 25 -10 11 -14 20 -10 20 5 0
-6 16 -25 35 -19 19 -30 35 -24 35 5 1 -9 17 -31 37 -22 20 -31 30 -20 22 11
-7 32 -24 46 -36z m-184 -94 c-1 -3 4 -13 12 -22 7 -10 10 -17 6 -17 -14 0
-75 51 -75 62 0 6 10 2 23 -10 37 -35 42 -26 8 13 -17 20 -31 43 -31 52 0 9
13 -3 29 -28 16 -24 29 -47 28 -50z m3 51 c6 -11 8 -20 6 -20 -3 0 -10 9 -16
20 -6 11 -8 20 -6 20 3 0 10 -9 16 -20z m-840 -26 c22 -15 38 -29 36 -32 -3
-2 -24 10 -48 27 -51 38 -43 41 12 5z m41 -63 c3 5 25 -12 50 -37 27 -28 36
-42 24 -38 l-20 7 20 -23 c21 -24 5 -20 -27 8 -9 7 -21 11 -26 8 -11 -6 -35
18 -26 26 3 3 -22 29 -55 58 -77 67 -79 84 -3 26 31 -24 59 -40 63 -35z m702
24 c32 -65 34 -79 7 -45 -17 21 -19 21 -14 5 5 -17 4 -17 -5 -5 -7 8 -19 29
-27 45 l-15 30 20 -25 21 -25 -15 38 c-23 57 -3 44 28 -18z m20 20 c19 -40 23
-65 8 -49 -15 14 -42 84 -33 84 5 0 16 -16 25 -35z m1791 -82 c18 -54 20 -77
4 -49 -16 29 -39 108 -29 101 5 -3 16 -26 25 -52z m-2444 12 c19 -19 32 -35
29 -35 -3 0 -20 16 -39 35 -19 19 -32 35 -29 35 3 0 20 -16 39 -35z m160 0
c25 -13 39 -24 32 -25 -14 0 -92 38 -92 45 0 9 15 4 60 -20z m7 -51 c-7 -7
-64 22 -72 37 -4 6 12 1 35 -11 23 -12 40 -24 37 -26z m1374 -1 c13 -17 13
-17 -6 -3 -11 8 -22 16 -24 17 -2 2 0 3 6 3 6 0 17 -8 24 -17z m-1909 -20
c-10 -16 -24 -39 -31 -53 -10 -21 -9 -22 1 -6 58 84 73 84 23 0 -40 -68 -114
-158 -123 -149 -3 3 6 18 20 33 36 40 68 88 62 95 -10 9 6 45 33 77 31 38 41
39 15 3z m1227 -68 c-1 -33 -4 -51 -7 -40 l-5 20 -7 -20 c-5 -13 -8 2 -8 42 0
34 -3 67 -7 73 -4 7 2 6 14 -2 18 -11 21 -22 20 -73z m-784 65 c3 -5 2 -10 -4
-10 -5 0 -13 5 -16 10 -3 6 -2 10 4 10 5 0 13 -4 16 -10z m368 -4 c18 -7 41
-24 52 -37 l20 -24 -23 19 c-12 11 -32 20 -45 22 -12 1 -22 3 -22 4 0 1 -27 8
-60 15 l-60 12 53 2 c29 0 67 -5 85 -13z m717 -6 c6 -11 8 -20 6 -20 -3 0 -10
9 -16 20 -6 11 -8 20 -6 20 3 0 10 -9 16 -20z m122 -47 c50 -53 130 -113 152
-113 5 0 1 10 -10 22 -23 26 58 -29 108 -74 l33 -30 -37 26 c-40 28 -53 33
-42 14 4 -7 -9 -2 -30 10 -63 38 -60 13 5 -36 88 -66 93 -71 87 -77 -3 -3 -29
10 -59 30 -62 40 -80 45 -53 13 19 -23 19 -23 -2 -5 -27 22 -29 50 -2 36 31
-17 20 -3 -29 36 -27 21 -39 35 -28 31 11 -4 -6 17 -37 46 -60 56 -142 147
-121 134 7 -4 37 -32 65 -63z m-1218 28 c-2 -3 -12 3 -22 13 -16 17 -16 18 5
5 12 -7 20 -15 17 -18z m1511 3 c17 -14 21 -21 10 -16 -30 16 -61 41 -50 41 6
0 24 -11 40 -25z m-1840 -4 c10 -11 16 -20 13 -20 -3 0 -13 9 -23 20 -10 11
-16 20 -13 20 3 0 13 -9 23 -20z m1072 -47 c-2 -16 -4 -5 -4 22 0 28 2 40 4
28 2 -13 2 -35 0 -50z m-255 0 c28 -64 17 -62 -14 3 -15 30 -22 51 -16 48 6
-4 19 -27 30 -51z m-84 -16 c25 -61 28 -85 5 -43 -27 51 -44 96 -35 96 5 0 18
-24 30 -53z m420 -8 c-3 -33 -4 -33 -8 8 -3 23 -2 39 3 34 5 -5 7 -24 5 -42z
m772 19 c0 -5 -11 -1 -25 8 -14 9 -25 18 -25 20 0 2 11 -2 25 -8 14 -6 25 -15
25 -20z m-207 -4 c43 -23 89 -55 84 -60 -4 -5 -127 65 -127 72 0 7 11 4 43
-12z m-944 -43 c0 -14 -1 -14 -6 -1 -3 8 -10 24 -15 35 -9 20 -9 20 6 1 9 -11
16 -27 15 -35z m-798 -31 c-9 -24 -10 -24 -10 7 -1 17 2 40 7 50 6 15 7 14 10
-7 2 -14 -2 -37 -7 -50z m48 11 c5 -29 4 -48 0 -44 -10 10 -25 111 -15 102 4
-4 10 -30 15 -58z m1773 -23 c21 -18 4 -10 -49 23 -46 28 -83 53 -83 56 0 9
99 -50 132 -79z m273 20 c5 -5 4 -8 -3 -8 -14 0 -132 58 -132 65 0 6 122 -46
135 -57z m-1075 41 c0 -5 5 -7 10 -4 13 8 13 3 0 -30 -6 -15 -6 -24 -1 -20 17
10 4 -65 -14 -85 -22 -25 -39 -16 -24 13 9 18 9 20 -2 10 -17 -16 -33 -17 -23
-1 4 7 9 26 11 42 2 17 8 35 13 40 6 6 10 18 10 28 0 10 5 18 10 18 6 0 10 -5
10 -11z m554 -108 c92 -119 136 -181 160 -228 27 -54 11 -38 -35 35 -23 37
-61 90 -84 117 -23 28 -51 64 -63 81 -11 17 -28 31 -37 31 -8 0 -14 -3 -13 -6
2 -3 24 -49 50 -101 26 -52 50 -113 53 -135 l5 -40 -18 37 c-27 56 -32 56 -16
2 17 -58 17 -92 -1 -44 l-13 35 -3 -30 c-3 -23 -9 -10 -27 59 -13 49 -20 91
-17 94 3 3 5 -1 5 -8 0 -7 3 -11 6 -8 3 3 -4 24 -15 47 -24 45 -26 55 -10 46
6 -4 0 13 -12 36 -12 24 -23 53 -25 65 -5 44 30 17 110 -85z m-916 48 c-3 -8
-7 -3 -11 10 -4 17 -3 21 5 13 5 -5 8 -16 6 -23z m45 18 c3 -8 1 -20 -4 -28
-6 -10 -9 -7 -9 14 0 29 5 35 13 14z m-866 -49 c-19 -24 -42 -59 -51 -78 l-17
-35 26 33 c35 42 53 42 21 -1 -14 -18 -32 -48 -40 -67 l-15 -35 2 57 c3 59 37
123 81 154 31 22 30 18 -7 -28z m1623 -6 c0 -7 4 -11 9 -7 5 3 13 0 17 -6 4
-8 3 -9 -4 -5 -15 9 -15 5 -2 -28 5 -14 7 -26 5 -26 -7 0 -41 70 -49 100 -7
24 -6 24 8 6 9 -11 16 -26 16 -34z m-355 -8 c-7 -25 -11 -52 -8 -59 2 -8 0
-22 -6 -32 -9 -15 -10 -13 -6 12 l6 30 -16 -27 c-25 -44 -27 -33 -4 25 12 28
25 62 30 75 15 40 18 23 4 -24z m325 -14 c12 -33 26 -58 30 -55 4 2 13 -23 20
-58 7 -34 14 -71 17 -82 3 -16 2 -17 -5 -5 -6 8 -13 33 -16 55 -10 56 -29 83
-22 30 5 -35 3 -33 -20 25 -25 60 -43 150 -32 150 3 0 16 -27 28 -60z m-577
35 c-3 -9 -8 -14 -10 -11 -3 3 -2 9 2 15 9 16 15 13 8 -4z m-76 -48 c-14 -24
-43 -57 -64 -72 l-38 -28 41 44 c23 24 50 58 60 76 10 18 20 30 22 28 3 -2 -7
-24 -21 -48z m303 35 c0 -21 -50 -125 -57 -118 -2 2 5 22 16 45 32 61 25 63
-10 3 -17 -30 -33 -51 -36 -48 -3 3 8 27 24 53 16 26 32 56 36 66 8 22 27 22
27 -1z m-985 -21 c-3 -6 -10 -9 -15 -6 -5 3 -12 0 -16 -6 -4 -8 -3 -9 4 -5 22
13 12 -7 -28 -61 -43 -56 -65 -72 -35 -25 l18 27 -26 -24 c-14 -12 -31 -20
-37 -16 -6 4 -19 1 -28 -7 -16 -12 75 100 107 132 20 21 -14 -35 -51 -82 -52
-66 -22 -41 37 32 37 46 62 67 68 61 5 -5 6 -14 2 -20z m1271 -16 c9 -50 0
-53 -13 -5 -5 22 -7 40 -2 40 4 0 11 -16 15 -35z m-1381 -12 c-24 -38 -66 -83
-90 -95 -10 -6 8 19 40 55 33 37 62 66 64 67 2 0 -5 -12 -14 -27z m1175 -49
c-18 -52 -22 -35 -8 27 9 35 14 46 16 31 2 -12 -2 -38 -8 -58z m87 54 c-3 -8
-6 -5 -6 6 -1 11 2 17 5 13 3 -3 4 -12 1 -19z m-549 -29 c-13 -23 -38 -53 -56
-67 -36 -28 -37 -40 0 -22 37 20 7 -4 -37 -29 -22 -13 -31 -16 -21 -7 11 9 21
24 22 33 2 10 7 19 13 21 5 2 28 28 51 58 24 30 44 54 47 54 2 0 -6 -19 -19
-41z m422 -36 c-12 -21 -19 -31 -16 -22 28 94 31 103 34 82 2 -12 -6 -39 -18
-60z m292 -27 c-7 -13 -31 85 -23 99 3 5 10 -13 17 -40 7 -27 10 -53 6 -59z
m-1478 63 c-34 -37 -103 -89 -117 -89 -9 0 132 119 142 120 3 0 -8 -14 -25
-31z m687 4 c-10 -19 -63 -70 -96 -93 -11 -8 7 14 40 48 63 66 71 72 56 45z
m30 -12 c-11 -15 -37 -41 -58 -56 -32 -23 -29 -19 17 28 61 64 71 71 41 28z
m535 -7 c-4 -14 -9 -24 -12 -21 -3 2 -2 17 2 31 3 15 9 25 11 22 3 -3 2 -17
-1 -32z m61 4 c-3 -8 -6 -5 -6 6 -1 11 2 17 5 13 3 -3 4 -12 1 -19z m-753 -49
c-44 -44 -94 -71 -94 -50 0 4 19 25 42 46 24 22 34 29 22 15 -47 -59 -44 -61
11 -8 33 32 61 55 64 52 3 -2 -17 -27 -45 -55z m1319 -8 c-2 -3 -18 10 -36 29
l-32 34 36 -30 c20 -16 34 -31 32 -33z m-576 17 c-3 -8 -6 -5 -6 6 -1 11 2 17
5 13 3 -3 4 -12 1 -19z m282 -103 c-1 -30 -1 -30 -9 5 -5 19 -11 55 -14 80
l-5 45 14 -50 c8 -27 14 -63 14 -80z m-1159 32 c-17 -36 -38 -71 -47 -78 -9
-8 3 23 27 68 24 45 45 81 47 79 2 -2 -10 -33 -27 -69z m344 8 c-29 -38 -134
-119 -143 -110 -2 3 6 13 20 22 13 10 42 35 64 56 l40 39 -55 -38 c-30 -21
-50 -33 -46 -26 12 20 87 72 96 67 4 -2 15 4 25 15 30 33 29 14 -1 -25z m-984
-3 c-23 -31 -18 -58 21 -114 12 -16 19 -31 16 -34 -3 -3 -19 15 -36 40 -34 50
-39 90 -14 118 26 29 36 21 13 -10z m563 11 c-6 -16 -5 -17 12 -3 17 13 17 11
-2 -15 -24 -34 -81 -88 -68 -65 4 8 15 24 24 35 9 11 -3 3 -27 -18 -65 -57
-63 -44 3 23 33 33 60 60 62 60 1 0 -1 -8 -4 -17z m836 -30 c-40 -60 -39 -58
-39 -46 0 11 57 93 66 93 3 0 -9 -21 -27 -47z m-188 3 c-14 -36 -22 -33 -9 5
6 16 12 28 14 26 3 -2 0 -16 -5 -31z m51 7 c-6 -10 -27 -34 -48 -53 l-38 -35
35 43 c19 24 38 50 44 57 13 20 19 10 7 -12z m284 -26 c-7 -28 -18 -61 -25
-72 -14 -22 -14 -27 12 78 16 64 28 60 13 -6z m141 21 c-3 -7 -5 -2 -5 12 0
14 2 19 5 13 2 -7 2 -19 0 -25z m-1101 -27 c-28 -44 -45 -56 -25 -18 22 40 42
68 46 63 2 -2 -7 -23 -21 -45z m405 -11 c-29 -27 -68 -54 -85 -59 -25 -8 -28
-8 -12 2 11 7 47 33 80 59 34 25 63 46 66 47 3 0 -19 -22 -49 -49z m85 6 c-16
-25 -112 -96 -130 -96 -5 0 21 23 58 51 37 28 70 57 73 65 3 8 8 13 11 10 2
-3 -3 -17 -12 -30z m424 -43 c-11 -17 -11 -17 -6 0 3 10 7 26 7 35 1 15 2 15
6 0 2 -10 -1 -25 -7 -35z m-849 10 c-12 -20 -14 -14 -5 12 4 9 9 14 11 11 3
-2 0 -13 -6 -23z m609 23 c0 -3 -15 -14 -32 -26 l-33 -22 30 26 c31 27 35 29
35 22z m-1276 -59 c15 -21 45 -50 67 -64 22 -14 37 -28 35 -30 -7 -7 -49 17
-86 51 -24 21 -21 16 10 -17 25 -27 71 -67 103 -89 61 -44 71 -65 14 -29 -82
51 -173 142 -161 162 3 5 -2 19 -10 31 -9 12 -16 27 -16 32 0 12 5 6 44 -47z
m1261 5 c-44 -37 -115 -86 -115 -78 0 6 111 86 119 86 3 0 1 -4 -4 -8z m-10
-67 c-22 -19 -44 -34 -49 -35 -5 0 8 16 30 35 21 19 44 34 49 34 6 1 -8 -15
-30 -34z m-850 16 c-3 -5 -24 -24 -48 -43 -43 -33 -34 -11 13 29 26 23 46 30
35 14z m1111 -135 c-14 -23 -33 -49 -43 -57 -13 -10 -12 -5 6 21 12 19 30 52
39 72 10 22 18 31 20 22 2 -8 -8 -34 -22 -58z m1272 29 c28 -20 52 -38 52 -40
0 -5 -101 53 -114 66 -23 22 13 6 62 -26z m283 -56 c28 -46 55 -93 60 -104 18
-37 -42 39 -72 92 -17 28 -36 57 -44 63 -8 6 -11 18 -8 26 7 19 4 23 64 -77z
m-1579 34 c-24 -46 -51 -72 -82 -78 -13 -3 -28 -9 -34 -15 -5 -5 -13 -10 -18
-10 -4 0 12 18 35 39 44 42 63 47 31 9 -10 -13 -4 -10 14 6 31 29 47 61 17 36
-23 -19 -18 4 5 25 20 18 21 18 15 -1 -7 -19 -6 -19 9 0 9 11 16 24 16 30 0 5
3 7 6 4 3 -3 -3 -23 -14 -45z m-64 -5 c-27 -35 -117 -108 -133 -108 -5 0 6 12
25 27 19 15 55 47 80 70 54 51 61 54 28 11z m242 2 c5 0 11 8 14 18 3 9 2 -8
-1 -38 -7 -74 -16 -93 -63 -142 -22 -23 -40 -48 -40 -54 0 -16 -93 -117 -133
-146 -17 -12 -27 -17 -23 -10 12 19 -6 14 -33 -10 -14 -13 -4 1 23 29 28 29
47 56 43 60 -4 3 -13 0 -20 -9 -6 -8 -34 -35 -62 -59 -43 -37 -41 -33 15 24
36 37 67 62 69 56 4 -12 71 49 71 64 0 6 14 33 30 61 18 31 21 39 8 21 -29
-37 -102 -114 -94 -98 8 15 -17 11 -38 -6 -16 -14 -22 -3 -8 15 4 5 -7 -6 -24
-25 -22 -24 -33 -31 -38 -22 -5 7 -1 20 6 29 8 9 18 24 22 32 4 8 0 5 -9 -7
-17 -23 -181 -174 -249 -230 -34 -27 -36 -31 -15 -27 13 3 2 -7 -26 -23 -54
-30 -99 -38 -86 -16 4 7 36 43 71 79 l63 66 -41 -21 c-59 -30 -73 -26 -32 10
24 21 27 27 10 17 -30 -17 -60 -29 -60 -23 0 11 122 75 131 69 8 -4 9 -3 5 4
-11 18 10 14 25 -5 12 -14 12 -16 0 -8 -10 5 -12 4 -7 -3 11 -18 38 0 107 73
34 35 65 63 68 62 9 -3 55 31 117 86 30 26 56 47 58 47 11 0 -3 -33 -25 -57
-44 -49 -54 -70 -13 -27 21 22 50 49 63 60 24 19 24 19 18 -1 -7 -19 -6 -19 7
-2 16 21 30 22 22 2 -8 -22 2 -18 15 6 8 17 8 20 -1 14 -8 -5 -11 -3 -8 6 3 8
11 13 17 12 6 -2 10 0 10 5 -1 4 2 22 6 41 6 27 10 30 17 17 5 -9 13 -16 18
-16z m-1509 -80 c33 -17 59 -34 56 -36 -9 -9 -131 57 -164 89 -47 44 -41 56 7
13 22 -19 67 -49 101 -66z m2864 80 c3 -5 2 -10 -4 -10 -5 0 -13 5 -16 10 -3
6 -2 10 4 10 5 0 13 -4 16 -10z m-1745 -55 c-24 -24 -46 -42 -49 -39 -6 6 73
84 86 84 4 0 -13 -20 -37 -45z m74 24 c-10 -12 -48 -44 -84 -71 -36 -28 -78
-65 -93 -82 l-28 -31 26 59 c38 86 56 119 62 113 2 -3 0 -14 -6 -25 -6 -11 -8
-27 -5 -36 4 -12 21 -3 72 40 70 57 87 68 56 33z m1281 -67 c-3 -3 -11 0 -18
7 -9 10 -8 11 6 5 10 -3 15 -9 12 -12z m-1472 -46 c-9 -23 -20 -45 -25 -51 -6
-5 -3 7 6 29 26 63 18 65 -17 5 -17 -31 -47 -74 -66 -95 -39 -46 -31 -28 17
35 18 24 42 61 52 81 10 20 25 37 34 37 13 0 13 -5 -1 -41z m1187 18 c0 -2 -9
0 -20 6 -11 6 -20 13 -20 16 0 2 9 0 20 -6 11 -6 20 -13 20 -16z m-1246 4
c-14 -23 -106 -138 -110 -138 -7 0 28 52 69 103 37 44 57 62 41 35z m-975 -31
c6 -8 38 -22 71 -32 33 -10 60 -22 60 -26 0 -8 -91 16 -121 32 -21 11 -44 39
-31 39 5 0 15 -6 21 -13z m2376 -5 c-3 -3 -11 0 -18 7 -9 10 -8 11 6 5 10 -3
15 -9 12 -12z m-1135 -16 c0 -3 -4 -8 -10 -11 -5 -3 -10 -1 -10 4 0 6 5 11 10
11 6 0 10 -2 10 -4z m1428 -28 c29 -12 51 -23 48 -25 -5 -5 -136 47 -136 54 0
3 8 2 18 -2 9 -4 41 -16 70 -27z m-2406 -62 c21 -9 53 -16 73 -16 19 0 35 -4
35 -10 0 -13 -45 -13 -93 1 -39 10 -117 72 -117 92 0 6 15 -3 33 -21 17 -17
49 -38 69 -46z m2398 18 c47 -19 72 -32 57 -29 -43 9 -136 45 -142 56 -8 12
-11 13 85 -27z m-1338 -6 c-7 -7 -12 -8 -12 -2 0 14 12 26 19 19 2 -3 -1 -11
-7 -17z m1380 -46 c-14 -4 -150 36 -156 47 -3 4 33 -3 80 -18 48 -14 82 -27
76 -29z m-1412 38 c0 -5 -5 -10 -11 -10 -5 0 -7 5 -4 10 3 6 8 10 11 10 2 0 4
-4 4 -10z m627 -67 c-3 -45 -15 -95 -36 -146 -19 -48 -31 -94 -30 -120 l1 -42
9 44 c12 59 19 63 20 10 1 -37 2 -40 9 -19 8 25 8 25 10 -5 2 -29 2 -29 9 -5
7 22 8 20 15 -20 3 -25 11 -52 17 -60 8 -12 9 -11 5 5 -15 62 -17 87 -8 81 5
-3 13 -23 17 -43 6 -36 57 -137 74 -147 4 -3 -8 25 -26 61 -21 41 -33 79 -32
102 1 35 1 34 18 -19 40 -126 105 -206 176 -217 18 -3 17 -1 -5 16 -13 11 -27
19 -31 18 -18 -5 -128 167 -115 180 2 3 14 -14 26 -36 11 -23 24 -40 29 -37 4
3 20 -4 37 -15 16 -10 25 -19 20 -19 -5 0 -3 -6 4 -14 6 -8 17 -14 23 -12 7 1
8 1 4 -2 -5 -2 0 -14 10 -26 9 -11 -8 4 -40 34 -31 30 -57 48 -57 41 0 -7 29
-41 65 -75 35 -35 61 -67 57 -72 -4 -5 -6 -8 -4 -7 2 1 11 -6 21 -15 9 -10 28
-25 41 -35 18 -12 12 -11 -20 4 -25 12 -45 20 -45 18 0 -2 -20 10 -45 27 -67
46 -78 51 -63 32 7 -8 11 -17 8 -20 -3 -3 2 -11 12 -19 11 -9 14 -10 9 -1 -11
18 0 15 42 -12 20 -13 61 -34 89 -46 29 -12 50 -26 48 -30 -3 -5 3 -11 12 -14
10 -4 29 -15 43 -26 l25 -20 -25 9 c-14 5 -52 21 -84 35 -33 14 -61 24 -64 21
-3 -2 6 -9 19 -14 69 -26 182 -85 170 -89 -7 -2 -71 25 -142 61 -71 36 -127
61 -124 57 9 -14 188 -106 245 -125 35 -12 74 -36 105 -65 28 -26 67 -61 88
-78 21 -18 34 -32 29 -32 -13 0 -59 36 -127 99 -65 61 -49 36 29 -46 28 -29
45 -53 39 -53 -7 0 -38 30 -70 66 -53 60 -131 114 -165 114 -7 0 -24 12 -37
25 -13 14 -30 25 -39 25 -28 0 -105 52 -160 109 -30 31 -46 45 -36 31 46 -62
103 -114 155 -140 30 -16 61 -35 68 -44 18 -21 5 -20 -27 2 -42 29 -60 36 -27
10 60 -47 95 -80 90 -87 -2 -4 11 -23 30 -41 37 -36 51 -75 18 -49 -32 25 -2
-12 82 -104 47 -50 141 -170 213 -271 23 -33 42 -57 42 -53 0 15 -79 177 -112
228 -19 30 -41 66 -48 79 l-12 25 20 -20 c37 -35 119 -181 157 -280 20 -53 35
-98 33 -100 -2 -3 -65 75 -139 171 -74 97 -142 186 -152 198 l-18 21 12 -25
c26 -52 104 -177 146 -232 23 -31 43 -60 43 -64 0 -4 -39 33 -87 83 -53 54
-120 139 -167 211 -44 67 -82 120 -84 117 -6 -6 24 -95 75 -219 24 -60 42
-110 40 -112 -11 -12 -167 282 -167 314 0 9 -3 13 -6 9 -3 -3 4 -36 16 -74 19
-60 40 -104 145 -298 21 -40 22 -45 6 -25 -12 14 -37 41 -55 60 -48 49 -96
132 -128 220 -17 45 -26 61 -23 40 9 -58 11 -248 3 -256 -15 -15 -21 7 -34
146 -9 90 -21 154 -32 176 l-17 33 2 -102 2 -102 -14 95 c-9 54 -32 141 -54
200 -21 58 -42 116 -46 130 -12 43 10 9 35 -52 13 -31 28 -56 34 -55 6 1 10
-9 8 -23 -1 -19 0 -21 7 -11 8 12 12 9 21 -15 7 -16 19 -44 28 -62 9 -18 22
-59 29 -90 l13 -57 -7 60 c-3 33 -6 71 -5 85 1 22 0 23 -7 5 -7 -17 -9 -15
-20 15 -6 20 -27 60 -47 90 -19 29 -40 63 -45 74 -19 39 38 -35 75 -98 20 -33
36 -57 36 -53 0 17 -55 114 -85 152 -50 61 -65 99 -20 50 l36 -40 -43 65 c-23
36 -42 68 -40 73 1 4 -1 6 -5 6 -30 -5 -48 10 -91 76 -32 46 -55 95 -62 128
-16 67 -7 98 9 37 7 -25 23 -65 37 -89 13 -24 22 -47 19 -51 -2 -4 4 -15 15
-25 24 -22 25 -14 4 26 -8 17 -14 33 -11 35 2 2 16 -20 31 -48 15 -29 25 -44
22 -33 l-6 20 16 -20 c16 -20 16 -20 9 3 -4 13 -2 22 4 22 6 0 4 14 -6 35 -22
46 -38 46 -19 0 20 -48 2 -44 -25 5 -15 27 -25 36 -30 28 -11 -18 -25 25 -39
121 -10 65 -10 91 0 127 7 24 17 47 21 50 5 3 9 10 9 17 0 6 -11 -4 -25 -23
-18 -24 -25 -47 -25 -78 0 -26 -4 -41 -10 -37 -19 12 -10 79 21 147 18 37 36
68 41 68 5 0 4 -9 -2 -21 -7 -11 -9 -23 -7 -25 7 -7 34 72 42 119 10 60 17 43
12 -30z m772 11 c9 -8 -16 -3 -83 16 -38 11 -74 24 -80 30 -9 9 153 -37 163
-46z m-1469 26 c-6 -11 -13 -20 -16 -20 -2 0 0 9 6 20 6 11 13 20 16 20 2 0 0
-9 -6 -20z m51 -7 c-12 -23 -101 -110 -101 -99 0 7 100 116 107 116 2 0 -1 -8
-6 -17z m-993 -33 c24 -12 67 -21 112 -24 23 -1 50 -17 50 -30 0 -3 -22 -6
-50 -6 -31 0 -50 4 -50 12 0 6 -3 9 -6 5 -9 -9 -101 51 -108 70 -6 15 -5 16
11 1 10 -8 29 -21 41 -28z m2302 20 c8 -5 11 -10 5 -10 -5 0 -17 5 -25 10 -8
5 -10 10 -5 10 6 0 17 -5 25 -10z m65 -40 c66 -18 67 -19 20 -14 -27 3 -75 11
-105 19 -47 11 -50 13 -20 13 19 0 67 -8 105 -18z m-1551 -79 c-36 -43 -76
-84 -89 -91 -13 -7 -38 -33 -56 -59 -18 -25 -25 -40 -16 -32 9 7 17 9 17 4 0
-6 -41 -48 -92 -94 -97 -89 -103 -89 -28 1 79 94 77 98 -7 18 -86 -83 -123
-106 -57 -35 21 23 53 57 69 76 l30 34 -32 -22 c-18 -12 -35 -26 -38 -31 -3
-6 -16 -15 -28 -21 -21 -12 -21 -11 -4 8 9 11 17 25 17 31 0 7 6 12 13 12 6 0
35 16 62 36 28 19 59 40 70 46 19 11 19 10 3 -9 -10 -11 -18 -23 -18 -27 0
-11 49 28 50 40 0 6 20 25 45 43 25 18 45 38 45 46 0 11 95 105 106 105 2 0
-26 -35 -62 -79z m254 -8 c-30 -32 -73 -84 -97 -115 -24 -32 -45 -58 -48 -58
-2 0 6 18 18 40 27 47 156 190 171 190 6 0 -14 -26 -44 -57z m-578 43 c0 -8
-97 -66 -111 -66 -8 0 13 16 46 35 64 37 65 37 65 31z m504 -73 c-70 -83 -73
-86 -48 -47 23 38 97 124 102 119 2 -2 -22 -34 -54 -72z m-970 60 c7 -8 18
-10 96 -23 l55 -9 -60 3 -60 3 35 -15 c19 -8 76 -18 125 -21 80 -6 86 -8 52
-15 -80 -17 -209 15 -251 63 -17 19 -10 32 8 14z m850 -5 c-5 -7 -9 -21 -9
-31 -1 -10 -17 -33 -35 -50 l-33 -32 22 32 c12 18 26 35 31 38 6 4 10 11 10
16 0 18 -16 1 -80 -83 -59 -77 -60 -80 -22 -45 23 20 45 37 49 37 8 0 -24 -36
-65 -73 -18 -16 -38 -39 -44 -51 -6 -11 11 -1 37 24 76 71 99 95 125 134 14
20 29 36 33 36 4 0 -6 -20 -23 -44 -16 -25 -30 -50 -30 -57 0 -7 -24 -38 -54
-69 -47 -49 -58 -68 -84 -151 -16 -52 -32 -103 -35 -114 -3 -15 -5 -13 -6 8
-1 26 -7 21 -78 -62 -42 -50 -81 -91 -86 -91 -6 0 -4 8 4 18 42 51 145 168
152 173 11 8 50 119 44 125 -2 2 -25 -21 -51 -51 -26 -30 -57 -60 -69 -66 -12
-7 3 15 32 47 29 32 57 68 63 79 13 24 3 14 -46 -47 -40 -50 -73 -68 -37 -20
58 75 61 80 48 78 -8 -1 -40 -25 -72 -54 -32 -28 -61 -49 -64 -47 -3 3 11 18
30 34 48 40 175 182 155 175 -27 -10 -18 10 14 31 17 11 60 53 96 93 36 39 70
72 75 72 6 0 7 -6 3 -12z m1521 -24 c28 -8 57 -19 65 -25 17 -12 10 -11 -90
16 -30 8 -67 15 -82 15 -15 0 -28 5 -28 10 0 12 61 5 135 -16z m-1831 -30
c-21 -19 -48 -40 -59 -45 -11 -6 5 12 35 40 30 27 57 47 59 45 3 -2 -13 -20
-35 -40z m1546 -29 c10 -22 20 -62 24 -90 5 -49 5 -49 -12 15 -10 36 -28 85
-41 110 -14 29 -16 38 -5 25 9 -11 24 -38 34 -60z m-1574 56 c-9 -14 -98 -71
-110 -71 -6 0 16 18 49 39 67 44 68 45 61 32z m-66 -16 c-7 -8 -17 -15 -23
-15 -6 0 -2 7 9 15 25 19 30 19 14 0z m1981 -32 c87 -26 43 -25 -76 2 -104 23
-106 25 -44 20 37 -3 91 -13 120 -22z m-1841 13 c0 -2 -8 -10 -17 -17 -16 -13
-17 -12 -4 4 13 16 21 21 21 13z m1475 -59 c8 -29 17 -71 19 -92 5 -50 20
-117 40 -172 24 -67 4 -50 -36 31 -26 52 -38 93 -43 137 -3 44 -2 58 4 44 5
-11 10 -31 10 -45 1 -18 4 -21 10 -11 8 12 -7 97 -24 144 -4 9 -5 17 -1 17 3
0 12 -24 21 -53z m581 44 c-3 -5 1 -14 9 -21 8 -7 15 -17 15 -23 0 -6 -10 -2
-21 10 -18 18 -20 43 -3 43 3 0 3 -4 0 -9z m-208 -36 c53 -25 74 -43 25 -23
-16 6 -64 22 -108 35 -80 23 -80 23 -25 18 30 -4 79 -17 108 -30z m-2058 -14
c0 -15 -133 -41 -202 -40 -104 1 -116 17 -13 19 69 1 181 16 213 29 1 1 2 -3
2 -8z m1914 -2 c-5 -9 1 -10 22 -5 17 4 24 3 16 -2 -8 -6 0 -15 28 -31 68 -38
53 -41 -20 -3 -47 24 -66 38 -58 44 18 11 20 10 12 -3z m116 -19 c8 -5 11 -10
5 -10 -5 0 -17 5 -25 10 -8 5 -10 10 -5 10 6 0 17 -5 25 -10z m-245 -107 c14
-56 37 -132 50 -168 14 -37 21 -64 15 -60 -15 9 -12 -6 6 -26 8 -9 17 -24 18
-33 1 -9 18 -30 37 -47 43 -39 19 -25 -46 26 -68 55 -47 26 26 -35 65 -54 67
-68 3 -21 -50 36 -115 104 -91 96 18 -8 24 9 6 20 -6 4 -8 14 -5 22 3 8 -1 29
-10 46 l-15 32 21 -25 21 -25 -20 45 c-10 25 -24 83 -30 130 -6 47 -14 96 -18
110 -3 14 -3 23 0 20 3 -3 18 -52 32 -107z m-1690 71 c-37 -30 -153 -89 -161
-81 -4 3 9 12 27 20 19 8 61 31 94 51 70 42 82 45 40 10z m365 18 c0 -6 -114
-148 -138 -172 -24 -25 39 71 78 119 51 60 60 68 60 53z m1730 -73 c41 -45 65
-77 53 -71 -33 18 -148 152 -130 152 2 0 36 -37 77 -81z m-207 35 c31 -19 57
-38 57 -41 0 -2 -15 4 -32 15 -18 11 -49 29 -68 41 -19 11 -30 21 -25 21 6 0
36 -16 68 -36z m-5 -114 c19 -25 58 -70 86 -100 28 -30 37 -42 19 -26 -17 15
-36 25 -42 22 -6 -4 -25 13 -43 38 -17 25 -33 44 -35 42 -5 -5 56 -114 68
-122 5 -3 9 -10 9 -16 0 -20 -36 21 -64 73 -15 27 -25 56 -22 64 3 8 -8 36
-24 62 -16 27 -32 62 -36 78 -5 23 0 19 21 -20 15 -27 43 -70 63 -95z m-1517
95 c-1 -3 -3 -4 -5 -2 -8 5 -54 -61 -60 -88 -4 -16 -28 -73 -52 -125 l-45 -95
32 30 c17 17 44 49 61 73 34 50 51 50 20 0 -36 -58 -181 -186 -195 -172 -3 3
-19 -3 -35 -15 -32 -22 -42 -26 -42 -13 0 4 14 16 30 26 17 10 49 36 72 59
l41 42 -22 -40 c-13 -22 -15 -31 -6 -20 30 36 106 197 101 212 -4 9 -2 11 6 7
7 -5 9 -2 5 8 -3 10 12 41 40 79 38 52 58 65 54 34z m416 3 c-3 -8 -6 -5 -6 6
-1 11 2 17 5 13 3 -3 4 -12 1 -19z m1150 -60 c9 -16 -81 47 -98 68 -8 9 10 0
38 -20 29 -21 56 -43 60 -48z m-1550 24 c-8 -9 -25 -37 -37 -60 -24 -49 -38
-52 -18 -5 19 43 62 104 67 92 1 -5 -4 -18 -12 -27z m313 -145 c0 -23 7 -80
15 -126 14 -79 14 -117 1 -74 -29 95 -47 261 -26 248 6 -3 10 -25 10 -48z
m1194 -107 c17 -19 21 -26 9 -16 -12 10 -27 15 -33 11 -6 -3 -9 -1 -8 5 2 7
-5 14 -15 15 -14 3 -17 -1 -13 -13 8 -24 -35 30 -61 76 -17 30 -18 39 -7 39 8
0 12 -3 9 -5 -3 -3 3 -11 13 -19 9 -8 11 -11 3 -7 -10 5 -12 3 -6 -5 5 -8 11
-9 17 -3 6 6 4 21 -6 40 -29 55 -17 46 25 -19 23 -35 55 -80 73 -99z m-1532
83 c-37 -74 -55 -103 -65 -103 -8 0 18 55 60 128 36 62 40 44 5 -25z m1532
-36 l39 -52 -34 32 c-19 18 -44 52 -57 75 -24 45 -19 40 52 -55z m-1145 -12
c-2 -109 -17 -118 -18 -10 0 68 2 95 9 85 5 -8 9 -42 9 -75z m70 -93 c1 -67
-3 -101 -9 -97 -6 4 -10 58 -9 133 2 151 16 121 18 -36z m116 71 c4 -29 10
-42 15 -34 14 23 18 -3 10 -64 -5 -33 -13 -101 -19 -152 -13 -111 -34 -172
-27 -78 5 58 5 59 -9 30 -8 -16 -24 -52 -35 -79 -11 -27 -23 -47 -25 -44 -7 6
15 68 53 148 40 85 50 176 28 250 -18 60 -20 84 -7 76 5 -3 12 -27 16 -53z
m-156 -70 c-3 -149 -17 -205 -18 -72 -1 92 7 189 16 189 2 0 3 -53 2 -117z
m1295 18 c-4 -5 -98 65 -115 86 -8 9 16 -5 52 -33 37 -27 65 -51 63 -53z m11
-44 c33 -25 69 -55 80 -68 17 -19 -162 107 -190 134 -23 22 56 -25 110 -66z
m-1179 -34 c-7 -69 -31 -160 -47 -178 -13 -14 -11 7 6 55 16 46 19 64 6 40
-59 -110 -84 -151 -88 -147 -2 3 5 23 16 46 24 47 27 63 6 35 -24 -31 -17 -8
28 99 28 68 43 95 45 80 2 -12 -1 -38 -7 -58 -5 -19 -5 -33 -1 -30 5 3 12 22
15 43 10 63 15 82 21 82 4 0 3 -30 0 -67z m799 -21 c-6 -6 -103 49 -121 70
-10 10 15 -1 54 -24 39 -23 69 -44 67 -46z m586 -25 c30 -56 52 -117 43 -117
-3 0 -14 21 -25 47 -11 26 -36 73 -55 104 -18 31 -34 61 -34 65 1 15 37 -37
71 -99z m-227 51 c58 -30 206 -161 206 -182 0 -6 -19 8 -42 29 l-41 40 25 -35
c29 -40 61 -100 53 -100 -2 0 -17 18 -31 40 -15 22 -30 37 -35 34 -8 -5 -13 9
-6 21 4 9 -119 128 -163 156 -60 38 -43 37 34 -3z m-224 -56 c3 -3 -10 3 -28
14 -18 10 -43 30 -55 43 -13 14 -1 8 28 -14 28 -20 52 -40 55 -43z m418 -35
c72 -108 99 -154 80 -139 -16 13 -113 155 -137 201 -25 47 9 10 57 -62z
m-1276 -54 c-2 -65 -5 -119 -7 -122 -3 -2 -5 53 -5 124 0 71 3 125 7 121 4 -4
6 -59 5 -123z m863 43 c27 -20 46 -36 42 -36 -5 0 -22 9 -39 21 -47 34 -41 17
9 -24 70 -57 37 -44 -47 19 -45 34 -65 53 -50 49 l25 -6 -25 21 -25 21 30 -15
c17 -8 52 -31 80 -50z m290 3 c28 -26 42 -47 41 -62 -2 -25 13 -62 21 -53 3 3
1 12 -5 19 -9 10 -8 14 2 14 9 0 13 -10 11 -26 -2 -14 8 -48 22 -74 33 -66 45
-100 33 -92 -5 3 -28 42 -51 86 -23 44 -44 78 -46 75 -3 -2 2 -15 10 -28 18
-28 58 -140 53 -146 -3 -2 -14 14 -26 37 -11 23 -23 41 -26 41 -3 0 13 -33 35
-74 28 -50 37 -76 28 -79 -9 -3 -9 -8 2 -20 7 -10 10 -17 5 -17 -11 0 -108
136 -125 175 -7 17 -24 47 -37 69 -13 21 -19 35 -13 32 17 -11 13 5 -6 26 -12
13 -13 22 -6 29 8 8 13 7 18 -2 6 -8 4 -10 -5 -4 -9 5 -11 4 -6 -4 4 -6 11 -9
16 -6 4 3 24 -13 44 -35 54 -60 43 -35 -13 30 -39 44 -45 56 -30 55 11 -1 25
-7 32 -15 10 -10 9 -11 -2 -5 -10 5 -12 4 -7 -4 4 -6 12 -8 18 -5 6 4 14 0 19
-7 7 -11 9 -11 9 2 0 8 -11 26 -25 39 -13 12 -22 26 -20 31 3 4 -9 19 -27 34
-23 19 -26 23 -9 15 13 -7 43 -30 66 -51z m-554 -59 c72 -89 75 -99 10 -31
-34 36 -58 56 -54 45 6 -17 5 -18 -11 -5 -11 9 -13 17 -6 21 6 4 8 15 4 26 -8
23 -4 18 57 -56z m142 -94 c21 -16 35 -31 33 -33 -6 -6 -113 76 -142 108 -57
63 -51 77 7 18 35 -36 81 -78 102 -93z m157 37 c0 -8 -61 32 -93 60 -20 18 -9
13 31 -14 34 -23 62 -44 62 -46z m-6 -217 c45 -91 69 -165 80 -241 7 -53 -8
-25 -24 45 -16 68 -60 175 -107 260 -26 48 -30 60 -14 46 11 -10 41 -60 65
-110z m216 105 c0 -10 68 -113 114 -173 15 -21 24 -38 20 -38 -26 1 -169 220
-144 220 5 0 10 -4 10 -9z m47 -143 c140 -170 157 -193 104 -143 -44 40 -204
234 -223 269 -21 39 14 2 119 -126z"/>
<path d="M1290 4513 c0 -5 6 -15 13 -24 10 -13 16 -14 42 -3 24 11 26 13 10
15 -11 1 -29 1 -40 0 -17 -2 -17 0 -5 8 13 9 13 11 -2 11 -10 0 -18 -3 -18 -7z"/>
<path d="M1352 4010 c-5 -19 -13 -53 -16 -75 l-5 -40 25 53 c20 41 24 59 17
75 -9 20 -11 19 -21 -13z"/>
<path d="M1232 3838 c-7 -7 -12 -15 -12 -19 0 -5 -11 -20 -25 -35 -32 -35 -32
-45 4 -42 21 1 27 6 24 18 -3 10 2 33 11 53 16 40 16 43 -2 25z"/>
<path d="M1252 3807 c-17 -48 -15 -67 11 -77 17 -6 26 -4 40 13 17 19 17 21 2
30 -9 5 -22 22 -29 38 l-12 29 -12 -33z"/>
<path d="M1372 3789 c-82 -80 -83 -85 -15 -104 32 -9 65 -19 73 -21 12 -4 13
-3 3 7 -19 19 -16 34 4 18 13 -11 13 -8 -3 15 -17 26 -19 28 -22 10 -2 -10 -9
-23 -14 -29 -16 -15 -2 74 18 113 9 18 14 35 12 37 -2 3 -28 -18 -56 -46z"/>
<path d="M1160 3721 c0 -4 15 -7 33 -7 17 1 46 -3 62 -7 26 -6 27 -6 10 5 -22
13 -105 21 -105 9z"/>
<path d="M1042 3671 c-22 -16 -23 -23 -18 -87 3 -38 6 -77 6 -86 1 -10 5 -20
11 -23 5 -4 6 2 2 11 -5 13 -3 15 8 9 10 -7 9 -1 -3 18 -24 36 -23 55 2 26
l20 -24 -15 41 c-20 51 -7 93 27 95 16 1 18 3 6 6 -9 2 -18 11 -20 18 -2 11
-8 11 -26 -4z"/>
<path d="M1088 3633 c7 -3 16 -2 19 1 4 3 -2 6 -13 5 -11 0 -14 -3 -6 -6z"/>
<path d="M1098 3613 c7 -3 16 -2 19 1 4 3 -2 6 -13 5 -11 0 -14 -3 -6 -6z"/>
<path d="M1130 3586 c0 -2 8 -10 18 -17 15 -13 16 -12 3 4 -13 16 -21 21 -21
13z"/>
<path d="M1594 3565 c25 -19 36 -19 36 0 0 10 -10 15 -27 15 -27 -1 -27 -1 -9
-15z"/>
<path d="M1124 3542 c4 -3 14 -7 22 -8 9 -1 13 0 10 4 -4 3 -14 7 -22 8 -9 1
-13 0 -10 -4z"/>
<path d="M1325 3490 c21 -22 41 -40 44 -40 3 0 -13 18 -34 40 -21 22 -41 40
-44 40 -3 0 13 -18 34 -40z"/>
<path d="M1728 3479 c-17 -18 -17 -19 2 -29 18 -10 20 -7 20 20 0 35 1 34 -22
9z"/>
<path d="M1298 3449 c18 -19 30 -38 27 -41 -3 -2 3 -12 13 -21 15 -14 19 -15
19 -2 0 8 -21 33 -46 57 -34 32 -38 34 -13 7z"/>
<path d="M1067 3429 c10 -17 24 -36 32 -42 8 -7 2 7 -14 31 -32 49 -45 57 -18
11z"/>
<path d="M1905 3440 c3 -5 0 -10 -8 -10 -8 0 -27 -10 -42 -22 l-27 -21 23 -12
c47 -24 66 -26 73 -9 8 22 -3 84 -16 84 -5 0 -6 -4 -3 -10z"/>
<path d="M1360 3430 c35 -24 54 -31 30 -11 -14 11 -29 21 -35 21 -5 0 -3 -5 5
-10z"/>
<path d="M1230 3426 c0 -2 8 -10 18 -17 15 -13 16 -12 3 4 -13 16 -21 21 -21
13z"/>
<path d="M1986 3374 c-28 -35 -28 -38 -11 -50 35 -26 45 -17 45 36 0 28 -1 50
-2 50 -2 0 -16 -16 -32 -36z"/>
<path d="M1295 3370 c16 -16 63 -53 104 -81 62 -42 71 -45 46 -19 -16 17 -51
45 -77 61 -26 17 -46 35 -43 39 6 10 -13 23 -40 27 -16 3 -15 -1 10 -27z"/>
<path d="M2052 3341 c-19 -33 -20 -41 -8 -41 8 0 21 -3 30 -6 12 -5 16 0 15
22 0 16 -4 37 -8 47 -5 15 -10 11 -29 -22z"/>
<path d="M1478 3257 c12 -13 20 -26 17 -29 -3 -2 2 -5 10 -5 11 0 8 8 -12 29
-15 15 -29 28 -32 28 -2 0 5 -10 17 -23z"/>
<path d="M2150 3266 c0 -2 7 -7 16 -10 8 -3 12 -2 9 4 -6 10 -25 14 -25 6z"/>
<path d="M2270 3266 c0 -2 12 -12 28 -21 l27 -18 -19 21 c-17 20 -36 29 -36
18z"/>
<path d="M2090 3240 c8 -5 20 -10 25 -10 6 0 3 5 -5 10 -8 5 -19 10 -25 10 -5
0 -3 -5 5 -10z"/>
<path d="M2138 3243 c7 -3 16 -2 19 1 4 3 -2 6 -13 5 -11 0 -14 -3 -6 -6z"/>
<path d="M1260 3237 c0 -2 15 -16 33 -33 l32 -29 -29 33 c-28 30 -36 37 -36
29z"/>
<path d="M1325 3200 c10 -11 20 -20 23 -20 3 0 -3 9 -13 20 -10 11 -20 20 -23
20 -3 0 3 -9 13 -20z"/>
<path d="M1580 3135 c13 -16 30 -16 33 -1 1 5 -9 11 -22 13 -20 3 -22 1 -11
-12z"/>
<path d="M1650 3049 c30 -27 73 -64 95 -81 l40 -32 -40 43 c-70 76 -108 110
-129 115 -13 3 -1 -14 34 -45z"/>
<path d="M1550 3088 c0 -4 13 -16 29 -27 23 -17 29 -18 27 -6 -1 8 -8 21 -16
28 -10 9 -11 9 -6 0 9 -16 -6 -17 -22 -1 -7 7 -12 9 -12 6z"/>
<path d="M1560 3005 c13 -14 26 -25 28 -25 3 0 -5 11 -18 25 -13 14 -26 25
-28 25 -3 0 5 -11 18 -25z"/>
<path d="M1710 2955 c13 -14 26 -25 28 -25 3 0 -5 11 -18 25 -13 14 -26 25
-28 25 -3 0 5 -11 18 -25z"/>
<path d="M2160 2906 c0 -2 7 -7 16 -10 8 -3 12 -2 9 4 -6 10 -25 14 -25 6z"/>
<path d="M1898 2893 c12 -2 30 -2 40 0 9 3 -1 5 -23 4 -22 0 -30 -2 -17 -4z"/>
<path d="M1847 2809 c7 -7 15 -10 18 -7 3 3 -2 9 -12 12 -14 6 -15 5 -6 -5z"/>
<path d="M1750 2715 c-8 -9 -8 -15 -2 -15 12 0 26 19 19 26 -2 2 -10 -2 -17
-11z"/>
<path d="M4408 4234 c-16 -8 -28 -17 -28 -20 0 -2 12 2 28 9 15 8 34 17 42 20
13 5 13 5 0 6 -8 0 -27 -7 -42 -15z"/>
<path d="M4474 4195 c-10 -8 -14 -15 -8 -15 6 0 17 7 24 15 16 19 9 19 -16 0z"/>
<path d="M4385 4180 c-3 -6 1 -7 9 -4 18 7 21 14 7 14 -6 0 -13 -4 -16 -10z"/>
<path d="M3580 4160 c-18 -12 -2 -12 25 0 13 6 15 9 5 9 -8 0 -22 -4 -30 -9z"/>
<path d="M3688 4163 c7 -3 16 -2 19 1 4 3 -2 6 -13 5 -11 0 -14 -3 -6 -6z"/>
<path d="M4360 4100 c-6 -11 -8 -20 -6 -20 3 0 10 9 16 20 6 11 8 20 6 20 -3
0 -10 -9 -16 -20z"/>
<path d="M4516 4105 c-3 -8 -9 -14 -13 -13 -18 5 -74 -34 -88 -62 -8 -16 -25
-39 -37 -50 -12 -11 -19 -23 -15 -26 7 -8 -30 -65 -50 -77 -7 -5 -10 -13 -7
-19 5 -7 2 -8 -6 -3 -12 7 -30 -10 -30 -30 0 -5 5 -3 10 5 5 8 17 15 27 15 10
0 24 4 31 8 7 5 12 3 12 -5 1 -8 7 -5 16 7 16 19 16 19 9 -5 -16 -54 -14 -53
13 5 26 53 30 57 34 35 4 -21 6 -18 13 18 9 50 29 57 23 7 -2 -19 -1 -35 3
-35 12 0 60 144 64 193 4 49 1 58 -9 32z"/>
<path d="M4314 4088 l-19 -23 23 19 c21 18 27 26 19 26 -2 0 -12 -10 -23 -22z"/>
<path d="M2633 4093 c-18 -2 -33 -8 -33 -14 0 -13 19 -11 55 6 31 14 30 14
-22 8z"/>
<path d="M4275 4080 c-10 -11 -22 -17 -28 -13 -5 3 -7 1 -4 -4 4 -6 2 -24 -4
-41 -6 -17 -9 -41 -7 -54 3 -17 8 -9 22 32 10 30 25 65 32 78 18 27 13 28 -11
2z"/>
<path d="M2355 4079 c-4 -6 -5 -12 -2 -15 2 -3 7 2 10 11 7 17 1 20 -8 4z"/>
<path d="M4368 4051 l-33 -36 38 34 c38 36 51 34 20 -3 -17 -20 -17 -20 0 -7
10 8 22 22 27 31 17 31 -18 18 -52 -19z"/>
<path d="M2478 4023 c12 -2 32 -2 45 0 12 2 2 4 -23 4 -25 0 -35 -2 -22 -4z"/>
<path d="M2599 3991 c-30 -30 -37 -55 -19 -66 6 -3 10 0 10 8 0 8 9 22 20 32
16 14 23 15 34 6 8 -7 28 -10 45 -8 29 5 58 -13 44 -26 -3 -4 -1 -7 5 -7 27 0
9 31 -38 65 -44 32 -65 32 -101 -4z m94 -8 c-7 -2 -21 -2 -30 0 -10 3 -4 5 12
5 17 0 24 -2 18 -5z"/>
<path d="M2810 3995 c14 -8 30 -14 35 -14 6 0 -1 6 -15 14 -14 8 -29 14 -35
14 -5 0 1 -6 15 -14z"/>
<path d="M2130 3990 c8 -5 20 -10 25 -10 6 0 3 5 -5 10 -8 5 -19 10 -25 10 -5
0 -3 -5 5 -10z"/>
<path d="M2244 3968 c13 -13 37 -36 51 -53 17 -19 15 -13 -6 15 -35 46 -48 60
-62 60 -4 0 3 -10 17 -22z"/>
<path d="M2195 3969 c11 -6 38 -28 59 -48 39 -35 39 -35 18 -5 -26 38 -40 50
-72 58 -23 6 -23 6 -5 -5z"/>
<path d="M2170 3955 c14 -8 30 -14 35 -14 6 0 -1 6 -15 14 -14 8 -29 14 -35
14 -5 0 1 -6 15 -14z"/>
<path d="M2466 3955 c4 -9 38 -39 77 -66 63 -44 78 -66 25 -38 -11 6 -22 8
-25 5 -11 -11 97 -54 162 -65 72 -11 105 -7 39 5 -62 11 -74 21 -32 29 20 4
46 4 57 0 12 -3 21 -2 21 2 0 5 -33 17 -73 27 -91 21 -181 57 -210 83 -34 31
-48 37 -41 18z"/>
<path d="M2330 3940 c0 -5 10 -15 23 -21 22 -12 22 -12 3 10 -21 23 -26 26
-26 11z"/>
<path d="M2678 3943 c7 -3 16 -2 19 1 4 3 -2 6 -13 5 -11 0 -14 -3 -6 -6z"/>
<path d="M2310 3926 c0 -2 8 -10 18 -17 15 -13 16 -12 3 4 -13 16 -21 21 -21
13z"/>
<path d="M2745 3910 c4 -6 -7 -8 -27 -5 l-33 5 34 -11 c27 -8 31 -13 20 -20
-9 -6 -10 -9 -2 -9 15 0 35 35 26 44 -10 10 -25 7 -18 -4z"/>
<path d="M4131 3915 c1 -19 18 -51 18 -35 0 8 -4 22 -9 30 -5 8 -9 11 -9 5z"/>
<path d="M4231 3904 c0 -11 3 -14 6 -6 3 7 2 16 -1 19 -3 4 -6 -2 -5 -13z"/>
<path d="M2410 3906 c0 -2 8 -10 18 -17 15 -13 16 -12 3 4 -13 16 -21 21 -21
13z"/>
<path d="M2938 3873 c7 -3 16 -2 19 1 4 3 -2 6 -13 5 -11 0 -14 -3 -6 -6z"/>
<path d="M2427 3859 c7 -7 15 -10 18 -7 3 3 -2 9 -12 12 -14 6 -15 5 -6 -5z"/>
<path d="M2430 3825 c13 -14 26 -25 28 -25 3 0 -5 11 -18 25 -13 14 -26 25
-28 25 -3 0 5 -11 18 -25z"/>
<path d="M4043 3838 c-19 -25 -24 -43 -6 -21 12 16 22 20 32 14 16 -10 41 -4
41 10 0 14 -56 11 -67 -3z"/>
<path d="M2530 3824 c0 -11 169 -68 178 -60 2 2 -38 17 -87 34 -50 17 -91 29
-91 26z"/>
<path d="M2470 3816 c0 -2 8 -10 18 -17 15 -13 16 -12 3 4 -13 16 -21 21 -21
13z"/>
<path d="M2711 3816 c2 -2 20 -6 39 -10 25 -4 31 -3 20 4 -14 9 -69 15 -59 6z"/>
<path d="M4215 3798 c-2 -7 -9 -35 -15 -63 -6 -27 -16 -55 -21 -62 -18 -21
-34 6 -32 56 l2 46 -8 -47 c-8 -55 -21 -74 -21 -32 0 20 -3 25 -9 15 -7 -11
-9 -11 -13 0 -3 8 -10 -2 -16 -21 -6 -19 -11 -29 -11 -21 -1 9 -11 3 -26 -15
-20 -23 -27 -26 -34 -15 -5 8 -8 19 -6 25 18 59 11 64 -15 11 -22 -43 -29 -51
-25 -30 l5 30 -15 -25 c-17 -29 -20 -9 -4 22 11 21 11 21 -17 -1 -28 -22 -94
-125 -94 -146 1 -5 6 -1 12 10 22 40 53 85 60 85 4 0 -7 -24 -25 -54 -21 -35
-38 -54 -49 -53 -13 1 -16 7 -12 22 3 11 -4 6 -15 -12 -24 -38 -35 -42 -26
-10 4 13 -3 8 -18 -16 -13 -20 -26 -39 -28 -42 -11 -10 -1 62 10 80 13 20 11
13 -6 -32 -10 -28 1 -12 36 50 18 31 30 57 27 57 -3 0 -13 -14 -21 -31 -9 -17
-19 -29 -22 -26 -2 3 0 15 7 26 21 41 0 20 -36 -34 -20 -30 -38 -55 -40 -55
-6 0 10 35 34 75 22 35 22 38 4 22 -11 -10 -26 -33 -32 -50 -7 -18 -25 -43
-39 -55 -24 -22 -24 -23 -3 -12 35 17 37 6 4 -21 -38 -32 -45 -46 -27 -53 8
-3 17 0 21 6 5 7 2 8 -7 3 -12 -8 -12 -6 0 8 18 23 34 11 20 -16 -7 -15 -3
-12 15 8 29 34 33 28 10 -17 -9 -16 -11 -27 -5 -23 7 3 18 21 26 38 10 22 14
25 11 10 -6 -35 11 -37 19 -3 4 16 10 32 15 35 4 3 4 -12 -1 -32 -9 -44 -4
-56 10 -22 5 13 14 35 20 49 10 22 11 21 6 -15 l-4 -40 17 47 c9 26 23 53 30
60 11 11 12 9 4 -12 -5 -14 -12 -38 -16 -55 l-7 -30 22 33 c23 35 38 38 20 4
-16 -30 -13 -40 6 -17 15 20 15 20 10 -3 -5 -23 -5 -23 13 -7 10 9 31 34 46
56 15 22 29 37 32 34 3 -3 0 -11 -6 -17 -7 -7 -12 -21 -12 -31 0 -15 3 -17 13
-8 8 6 17 8 20 4 9 -9 9 -25 0 -20 -5 3 -8 -5 -9 -16 -1 -12 -3 -39 -6 -59 -3
-21 -1 -38 3 -38 5 0 9 5 9 11 0 5 5 7 12 3 7 -5 8 -3 3 6 -4 7 -8 27 -7 43 1
36 31 109 42 102 4 -3 14 2 21 11 7 9 22 20 34 26 11 5 36 17 55 28 19 10 37
16 39 14 2 -2 -4 -22 -13 -45 -22 -54 -14 -61 11 -10 11 22 23 38 25 35 3 -3
10 9 16 25 13 36 27 42 17 9 -5 -17 -1 -14 13 8 11 18 24 33 29 35 9 4 56 89
49 89 -3 0 -14 -17 -27 -37 -34 -57 -51 -75 -60 -62 -3 6 6 36 22 68 15 31 30
72 33 91 6 35 6 35 -5 6 -9 -21 -14 -25 -20 -15 -6 9 -9 0 -9 -27 0 -27 -9
-55 -30 -87 -29 -47 -48 -63 -35 -29 4 9 8 22 9 27 1 6 8 20 15 33 19 35 40
113 29 106 -6 -4 -8 2 -3 17 5 19 4 21 -4 9 -6 -8 -11 -33 -11 -55 0 -22 -8
-51 -16 -65 l-15 -25 6 30 c19 85 25 154 10 113z"/>
<path d="M2607 3769 c7 -7 15 -10 18 -7 3 3 -2 9 -12 12 -14 6 -15 5 -6 -5z"/>
<path d="M4160 3730 c0 -29 3 -51 6 -47 8 7 7 87 0 95 -3 3 -6 -19 -6 -48z"/>
<path d="M2675 3741 c-19 -8 -19 -8 0 -18 11 -5 31 -7 45 -2 25 7 24 7 -5 9
l-30 2 30 8 c27 7 28 8 5 8 -14 0 -34 -3 -45 -7z"/>
<path d="M4056 3715 c-9 -26 -7 -32 5 -12 6 10 9 21 6 23 -2 3 -7 -2 -11 -11z"/>
<path d="M4502 3700 c0 -14 2 -19 5 -12 2 6 2 18 0 25 -3 6 -5 1 -5 -13z"/>
<path d="M2738 3693 c7 -3 16 -2 19 1 4 3 -2 6 -13 5 -11 0 -14 -3 -6 -6z"/>
<path d="M2699 3679 c14 -5 31 -15 38 -21 18 -15 16 -3 -3 16 -8 9 -25 16 -37
15 -21 0 -21 -1 2 -10z"/>
<path d="M4021 3674 c0 -11 3 -14 6 -6 3 7 2 16 -1 19 -3 4 -6 -2 -5 -13z"/>
<path d="M2755 3672 c6 -5 24 -12 40 -16 34 -7 15 7 -25 19 -16 5 -22 4 -15
-3z"/>
<path d="M2777 3619 c7 -7 15 -10 18 -7 3 3 -2 9 -12 12 -14 6 -15 5 -6 -5z"/>
<path d="M2670 3590 c8 -5 20 -10 25 -10 6 0 3 5 -5 10 -8 5 -19 10 -25 10 -5
0 -3 -5 5 -10z"/>
<path d="M3538 3543 c7 -3 16 -2 19 1 4 3 -2 6 -13 5 -11 0 -14 -3 -6 -6z"/>
<path d="M4216 3523 c-6 -14 -5 -15 5 -6 7 7 10 15 7 18 -3 3 -9 -2 -12 -12z"/>
<path d="M4096 3487 c-19 -23 -40 -64 -46 -90 -7 -26 -16 -50 -21 -53 -5 -3
-9 -15 -9 -27 1 -21 1 -22 12 -2 6 11 19 29 28 40 10 11 21 36 25 55 4 19 17
54 30 78 13 23 22 42 20 42 -2 0 -19 -19 -39 -43z"/>
<path d="M3548 3493 c7 -3 16 -2 19 1 4 3 -2 6 -13 5 -11 0 -14 -3 -6 -6z"/>
<path d="M3461 3436 c10 -9 69 -36 69 -32 0 6 -55 36 -66 36 -4 0 -5 -2 -3 -4z"/>
<path d="M4013 3411 c-7 -19 -13 -43 -13 -55 0 -18 1 -19 16 -5 10 11 14 29
12 55 l-3 39 -12 -34z"/>
<path d="M4107 3400 c-9 -24 -15 -45 -13 -47 6 -6 38 67 34 79 -2 6 -12 -9
-21 -32z"/>
<path d="M3410 3382 c8 -5 26 -13 40 -16 17 -5 20 -4 10 2 -8 5 -26 13 -40 16
-17 5 -20 4 -10 -2z"/>
<path d="M3777 3373 c-4 -3 -7 -13 -7 -22 1 -13 3 -13 11 2 11 19 8 33 -4 20z"/>
<path d="M3946 3363 c-6 -14 -5 -15 5 -6 7 7 10 15 7 18 -3 3 -9 -2 -12 -12z"/>
<path d="M3120 3366 c0 -2 8 -10 18 -17 15 -13 16 -12 3 4 -13 16 -21 21 -21
13z"/>
<path d="M3049 3326 c29 -31 35 -33 22 -7 -6 10 -18 22 -28 25 -13 5 -11 1 6
-18z"/>
<path d="M3000 3337 c0 -2 15 -16 33 -33 l32 -29 -29 33 c-28 30 -36 37 -36
29z"/>
<path d="M3505 3320 c10 -11 20 -20 22 -20 2 0 -1 9 -7 20 -6 11 -16 20 -22
20 -6 0 -3 -9 7 -20z"/>
<path d="M2980 3295 c13 -14 26 -25 28 -25 3 0 -5 11 -18 25 -13 14 -26 25
-28 25 -3 0 5 -11 18 -25z"/>
<path d="M3790 3312 c0 -13 39 -46 46 -39 9 9 -5 27 -22 27 -8 0 -12 5 -9 10
3 6 1 10 -4 10 -6 0 -11 -4 -11 -8z"/>
<path d="M2924 3295 c11 -8 25 -15 30 -15 6 0 2 7 -8 15 -11 8 -25 15 -30 15
-6 0 -2 -7 8 -15z"/>
<path d="M3020 3285 c13 -14 26 -25 28 -25 3 0 -5 11 -18 25 -13 14 -26 25
-28 25 -3 0 5 -11 18 -25z"/>
<path d="M3420 3306 c0 -2 7 -7 16 -10 8 -3 12 -2 9 4 -6 10 -25 14 -25 6z"/>
<path d="M3874 3278 c-4 -6 -3 -8 4 -4 6 3 13 -2 15 -11 4 -14 5 -13 6 5 1 23
-13 30 -25 10z"/>
<path d="M4010 3281 c0 -5 5 -13 10 -16 6 -3 10 -2 10 4 0 5 -4 13 -10 16 -5
3 -10 2 -10 -4z"/>
<path d="M2910 3267 c0 -2 15 -14 33 -27 20 -15 27 -17 18 -6 -13 16 -51 41
-51 33z"/>
<path d="M2950 3266 c0 -3 14 -14 31 -27 34 -24 64 -13 32 12 -16 13 -17 12
-4 -3 19 -25 -2 -23 -24 2 -16 18 -35 26 -35 16z"/>
<path d="M3400 3266 c0 -2 16 -13 36 -25 19 -12 32 -16 29 -11 -7 11 -65 43
-65 36z"/>
<path d="M2929 3216 c14 -14 26 -24 29 -22 7 8 -8 25 -31 37 -21 11 -21 10 2
-15z"/>
<path d="M2990 3206 c0 -2 8 -10 18 -17 15 -13 16 -12 3 4 -13 16 -21 21 -21
13z"/>
<path d="M3050 3200 c0 -12 84 -80 99 -80 7 0 10 -4 6 -9 -3 -5 0 -13 6 -17 8
-4 9 -3 5 4 -11 18 -1 15 64 -18 77 -39 78 -31 1 11 -33 18 -57 37 -54 43 3 5
1 6 -5 2 -7 -4 -12 -3 -12 3 0 5 -25 23 -55 39 -30 17 -55 26 -55 22z"/>
<path d="M3058 3160 c6 -9 12 -21 12 -26 0 -6 19 -28 42 -49 l42 -40 -30 38
c-16 20 -40 50 -54 65 -14 16 -19 21 -12 12z"/>
<path d="M4224 3135 c11 -8 22 -12 25 -9 6 6 -19 24 -34 24 -5 -1 -1 -7 9 -15z"/>
<path d="M3788 3113 c18 -2 45 -2 60 0 15 2 0 4 -33 4 -33 0 -45 -2 -27 -4z"/>
<path d="M3110 3056 c0 -2 8 -10 18 -17 15 -13 16 -12 3 4 -13 16 -21 21 -21
13z"/>
<path d="M3560 3036 c0 -3 9 -10 20 -16 11 -6 20 -8 20 -6 0 3 -9 10 -20 16
-11 6 -20 8 -20 6z"/>
<path d="M3991 3024 c0 -11 3 -14 6 -6 3 7 2 16 -1 19 -3 4 -6 -2 -5 -13z"/>
<path d="M4124 3033 c4 -8 2 -13 -5 -13 -10 0 -10 -3 -1 -12 8 -8 15 -9 22 -2
8 8 6 15 -6 25 -12 9 -15 10 -10 2z"/>
<path d="M3637 3019 c7 -7 15 -10 18 -7 3 3 -2 9 -12 12 -14 6 -15 5 -6 -5z"/>
<path d="M3688 3008 c5 -5 16 -8 23 -6 8 3 3 7 -10 11 -17 4 -21 3 -13 -5z"/>
<path d="M4195 2960 c10 -11 20 -20 23 -20 3 0 -3 9 -13 20 -10 11 -20 20 -23
20 -3 0 3 -9 13 -20z"/>
<path d="M4175 2950 c10 -11 20 -20 23 -20 3 0 -3 9 -13 20 -10 11 -20 20 -23
20 -3 0 3 -9 13 -20z"/>
<path d="M3715 2920 c28 -12 47 -12 40 0 -3 6 -18 10 -33 9 -24 0 -25 -1 -7
-9z"/>
<path d="M3800 2920 c20 -13 33 -13 25 0 -3 6 -14 10 -23 10 -15 0 -15 -2 -2
-10z"/>
<path d="M3656 2911 c13 -14 87 -33 79 -21 -3 4 -15 10 -27 13 -13 2 -32 8
-43 12 -15 6 -17 5 -9 -4z"/>
<path d="M4065 2886 c22 -20 60 -50 85 -67 l45 -31 -40 37 c-22 20 -60 50 -85
67 l-45 29 40 -35z"/>
<path d="M4262 2865 c21 -22 39 -37 41 -34 2 2 -15 19 -37 38 l-41 35 37 -39z"/>
<path d="M3657 2879 c7 -7 15 -10 18 -7 3 3 -2 9 -12 12 -14 6 -15 5 -6 -5z"/>
<path d="M3780 2886 c0 -2 8 -10 18 -17 15 -13 16 -12 3 4 -13 16 -21 21 -21
13z"/>
<path d="M3770 2856 c0 -2 7 -7 16 -10 8 -3 12 -2 9 4 -6 10 -25 14 -25 6z"/>
<path d="M4051 2847 c2 -1 13 -9 24 -17 19 -14 19 -14 6 3 -7 9 -18 17 -24 17
-6 0 -8 -1 -6 -3z"/>
<path d="M4043 2816 c47 -29 183 -146 191 -164 3 -8 -18 5 -46 29 -29 24 -43
32 -30 18 12 -14 19 -29 15 -33 -5 -4 -2 -6 4 -4 7 2 47 -33 88 -77 l76 -80
-63 95 c-34 52 -63 101 -64 108 -3 18 -33 50 -69 74 -17 11 -11 3 15 -20 63
-56 46 -61 -20 -6 -62 52 -110 84 -125 84 -5 -1 7 -11 28 -24z"/>
<path d="M4000 2816 c0 -3 9 -10 20 -16 11 -6 20 -8 20 -6 0 3 -9 10 -20 16
-11 6 -20 8 -20 6z"/>
<path d="M3790 2806 c0 -2 8 -10 18 -17 15 -13 16 -12 3 4 -13 16 -21 21 -21
13z"/>
<path d="M3930 2795 c0 -2 18 -14 40 -25 22 -11 40 -18 40 -15 0 2 -18 14 -40
25 -22 11 -40 18 -40 15z"/>
<path d="M3739 2756 c13 -16 51 -41 51 -33 0 2 -15 14 -32 27 -21 15 -28 17
-19 6z"/>
<path d="M4045 2763 c6 -5 33 -27 60 -47 l50 -38 -40 36 c-34 31 -99 76 -70
49z"/>
<path d="M3504 2683 c11 -20 93 -73 112 -73 11 0 2 11 -24 30 -23 17 -48 30
-55 30 -7 0 -19 6 -26 13 -11 9 -12 9 -7 0z"/>
<path d="M3707 2669 c7 -7 15 -10 18 -7 3 3 -2 9 -12 12 -14 6 -15 5 -6 -5z"/>
<path d="M4050 2625 c0 -2 19 -17 43 -32 23 -15 52 -36 65 -47 12 -11 22 -15
22 -9 0 9 -33 34 -102 77 -16 9 -28 14 -28 11z"/>
<path d="M3539 2587 c14 -18 51 -42 51 -33 0 3 -15 15 -32 27 -24 17 -29 18
-19 6z"/>
<path d="M3694 2551 c7 -11 46 -35 46 -28 0 3 -12 12 -26 22 -15 9 -23 12 -20
6z"/>
<path d="M3934 2552 c6 -10 166 -95 166 -88 0 7 -112 73 -143 85 -16 6 -26 7
-23 3z"/>
<path d="M4130 2537 c0 -3 17 -17 37 -33 20 -15 33 -23 29 -16 -8 13 -66 56
-66 49z"/>
<path d="M3577 2509 c7 -7 15 -10 18 -7 3 3 -2 9 -12 12 -14 6 -15 5 -6 -5z"/>
<path d="M3940 2515 c0 -7 61 -37 66 -33 2 3 -12 12 -31 21 -19 9 -35 15 -35
12z"/>
<path d="M3870 2506 c0 -2 7 -7 16 -10 8 -3 12 -2 9 4 -6 10 -25 14 -25 6z"/>
<path d="M3320 2493 c0 -8 77 -85 113 -112 32 -25 17 -6 -48 58 -36 35 -65 60
-65 54z"/>
<path d="M3911 2486 c10 -9 89 -46 89 -41 0 5 -75 45 -86 45 -4 0 -5 -2 -3 -4z"/>
<path d="M4030 2470 c8 -5 20 -10 25 -10 6 0 3 5 -5 10 -8 5 -19 10 -25 10 -5
0 -3 -5 5 -10z"/>
<path d="M4114 2465 c3 -21 19 -35 44 -40 12 -2 27 -7 32 -10 6 -3 10 -4 10
-1 0 3 -20 19 -44 35 -30 21 -44 26 -42 16z"/>
<path d="M3595 2442 c11 -13 29 -28 40 -34 21 -11 18 -8 -30 32 -29 24 -29 24
-10 2z"/>
<path d="M3920 2456 c0 -3 9 -10 20 -16 11 -6 20 -8 20 -6 0 3 -9 10 -20 16
-11 6 -20 8 -20 6z"/>
<path d="M3810 2416 c0 -3 9 -10 20 -16 11 -6 20 -8 20 -6 0 3 -9 10 -20 16
-11 6 -20 8 -20 6z"/>
<path d="M3990 2416 c0 -3 9 -10 20 -16 11 -6 20 -8 20 -6 0 3 -9 10 -20 16
-11 6 -20 8 -20 6z"/>
<path d="M3680 2396 c0 -2 7 -7 16 -10 8 -3 12 -2 9 4 -6 10 -25 14 -25 6z"/>
<path d="M3469 2373 c6 -12 31 -36 55 -53 51 -34 73 -41 30 -8 -16 12 -44 35
-63 52 -27 25 -31 27 -22 9z"/>
<path d="M4030 2360 c19 -17 21 -20 6 -16 -16 6 -17 4 -6 -9 13 -16 35 -21 26
-6 -4 5 0 11 6 14 7 2 -3 12 -22 21 l-35 17 25 -21z"/>
<path d="M3690 2366 c0 -2 16 -13 36 -25 19 -12 32 -16 29 -11 -7 11 -65 43
-65 36z"/>
<path d="M3101 2324 c0 -11 3 -14 6 -6 3 7 2 16 -1 19 -3 4 -6 -2 -5 -13z"/>
<path d="M3285 2325 c4 -11 8 -33 11 -50 4 -24 1 -21 -15 15 -24 55 -27 31 -2
-28 9 -23 20 -40 24 -36 3 4 16 -4 27 -17 l21 -24 -21 35 c-11 19 -20 44 -20
55 -1 11 -8 31 -16 45 -11 18 -13 19 -9 5z"/>
<path d="M3580 2336 c0 -3 9 -10 20 -16 11 -6 20 -8 20 -6 0 3 -9 10 -20 16
-11 6 -20 8 -20 6z"/>
<path d="M3867 2329 c7 -7 15 -10 18 -7 3 3 -2 9 -12 12 -14 6 -15 5 -6 -5z"/>
<path d="M3745 2304 c11 -8 42 -27 68 -40 26 -14 45 -29 42 -34 -3 -6 1 -7 10
-4 21 8 15 13 -70 58 -38 20 -61 29 -50 20z"/>
<path d="M3845 2311 c14 -14 236 -124 240 -119 2 2 -40 26 -93 53 -115 59
-161 80 -147 66z"/>
<path d="M3081 2284 c0 -11 3 -14 6 -6 3 7 2 16 -1 19 -3 4 -6 -2 -5 -13z"/>
<path d="M3540 2257 c0 -6 79 -57 87 -57 5 0 -1 8 -12 16 -24 19 -75 46 -75
41z"/>
<path d="M3385 2200 c21 -22 41 -40 44 -40 3 0 -13 18 -34 40 -21 22 -41 40
-44 40 -3 0 13 -18 34 -40z"/>
<path d="M3132 2200 c0 -19 2 -27 5 -17 2 9 2 25 0 35 -3 9 -5 1 -5 -18z"/>
<path d="M3540 2226 c0 -7 87 -66 96 -66 4 0 -8 12 -27 26 -40 30 -69 47 -69
40z"/>
<path d="M3091 2184 c-16 -36 -51 -135 -50 -143 0 -3 7 8 14 24 8 17 14 23 15
15 0 -13 1 -13 10 0 5 8 10 20 10 25 0 6 -5 3 -10 -5 -19 -29 -11 10 11 51 11
22 19 45 17 51 -2 6 -10 -3 -17 -18z"/>
<path d="M3065 2179 c-4 -6 -5 -12 -2 -15 2 -3 7 2 10 11 7 17 1 20 -8 4z"/>
<path d="M3108 2115 c-3 -11 -9 -29 -13 -40 -3 -11 1 -7 10 8 9 16 15 33 12
40 -2 6 -6 3 -9 -8z"/>
<path d="M3008 2068 c-16 -53 -14 -78 4 -60 8 8 21 112 14 112 -1 0 -9 -24
-18 -52z"/>
<path d="M3308 2085 c5 -11 12 -27 15 -35 5 -13 6 -13 6 1 1 8 -6 24 -15 35
-15 19 -15 19 -6 -1z"/>
<path d="M4201 2093 c0 -5 14 -19 32 -32 l32 -25 -29 32 c-31 33 -36 37 -35
25z"/>
<path d="M3540 2050 c8 -5 24 -10 34 -10 26 0 18 6 -19 14 -22 5 -26 4 -15 -4z"/>
<path d="M3070 2031 c-17 -19 -70 -114 -70 -127 0 -12 49 56 71 99 22 43 22
52 -1 28z"/>
<path d="M3347 2032 c3 -12 9 -25 14 -28 14 -8 11 10 -6 32 -13 18 -14 18 -8
-4z"/>
<path d="M3550 1976 c13 -35 15 -102 7 -211 l-6 -80 9 79 c5 43 14 84 20 92 7
7 9 17 7 21 -3 5 -8 28 -11 52 -2 24 -12 51 -21 60 -15 15 -15 14 -5 -13z"/>
<path d="M3352 1960 c0 -19 2 -27 5 -17 2 9 2 25 0 35 -3 9 -5 1 -5 -18z"/>
<path d="M2975 1930 c-9 -16 -13 -30 -11 -30 3 0 12 14 21 30 9 17 13 30 11
30 -3 0 -12 -13 -21 -30z"/>
<path d="M3630 1949 c0 -5 9 -9 20 -9 11 0 20 2 20 4 0 2 -9 6 -20 9 -11 3
-20 1 -20 -4z"/>
<path d="M3371 1924 c0 -11 3 -14 6 -6 3 7 2 16 -1 19 -3 4 -6 -2 -5 -13z"/>
<path d="M3513 1865 c0 -27 2 -38 4 -22 2 15 2 37 0 50 -2 12 -4 0 -4 -28z"/>
<path d="M3542 1880 c0 -19 2 -27 5 -17 2 9 2 25 0 35 -3 9 -5 1 -5 -18z"/>
<path d="M3606 1858 c9 -72 16 -75 12 -5 -2 31 -7 57 -11 57 -4 0 -5 -24 -1
-52z"/>
<path d="M4360 1856 c45 -62 63 -73 21 -13 -17 25 -37 49 -43 53 -6 4 4 -14
22 -40z"/>
<path d="M2945 1845 c-9 -20 -14 -39 -11 -42 3 -3 12 12 21 32 8 21 13 40 10
43 -2 3 -12 -12 -20 -33z"/>
<path d="M2890 1819 c-7 -11 -10 -23 -7 -25 2 -2 9 7 15 21 14 30 7 33 -8 4z"/>
<path d="M2837 1793 c-24 -47 -30 -83 -7 -40 11 20 25 37 30 37 6 0 10 7 10
15 0 24 -18 17 -33 -12z"/>
<path d="M3081 1794 c0 -11 3 -14 6 -6 3 7 2 16 -1 19 -3 4 -6 -2 -5 -13z"/>
<path d="M3522 1750 c0 -19 2 -27 5 -17 2 9 2 25 0 35 -3 9 -5 1 -5 -18z"/>
<path d="M2872 1698 c-6 -23 -9 -44 -7 -46 2 -2 9 15 15 38 6 23 9 44 7 46 -2
3 -9 -14 -15 -38z"/>
<path d="M2741 1683 c-10 -26 -10 -27 4 -9 8 11 15 23 15 28 0 15 -7 8 -19
-19z"/>
<path d="M2638 1662 c-10 -17 -13 -34 -7 -47 7 -19 8 -19 8 3 1 13 6 32 12 44
16 30 5 31 -13 0z"/>
<path d="M2749 1652 c-12 -21 -14 -47 -10 -122 5 -101 7 -99 30 35 5 28 14 63
20 78 17 45 11 46 -10 2 l-19 -40 5 38 c3 20 5 37 3 37 -2 0 -10 -13 -19 -28z"/>
<path d="M4460 1660 c6 -11 13 -20 16 -20 2 0 0 9 -6 20 -6 11 -13 20 -16 20
-2 0 0 -9 6 -20z"/>
<path d="M3682 1625 c0 -16 2 -22 5 -12 2 9 2 23 0 30 -3 6 -5 -1 -5 -18z"/>
<path d="M2752 1405 c0 -16 2 -22 5 -12 2 9 2 23 0 30 -3 6 -5 -1 -5 -18z"/>
<path d="M3710 1384 c19 -26 99 -98 104 -93 3 2 -23 29 -57 59 -34 30 -55 46
-47 34z"/>
<path d="M4410 1396 c0 -2 8 -10 18 -17 15 -13 16 -12 3 4 -13 16 -21 21 -21
13z"/>
<path d="M4420 1346 c0 -2 8 -10 18 -17 15 -13 16 -12 3 4 -13 16 -21 21 -21
13z"/>
<path d="M3176 1307 c3 -10 9 -15 12 -12 3 3 0 11 -7 18 -10 9 -11 8 -5 -6z"/>
<path d="M3251 1294 c2 -5 15 -38 29 -73 13 -35 25 -60 27 -54 5 14 -36 121
-49 129 -6 4 -9 3 -7 -2z"/>
<path d="M3141 1254 c0 -11 3 -14 6 -6 3 7 2 16 -1 19 -3 4 -6 -2 -5 -13z"/>
<path d="M3172 1250 c0 -14 2 -19 5 -12 2 6 2 18 0 25 -3 6 -5 1 -5 -13z"/>
<path d="M3261 1054 c0 -11 3 -14 6 -6 3 7 2 16 -1 19 -3 4 -6 -2 -5 -13z"/>
<path d="M3271 1020 c0 -8 4 -24 9 -35 5 -13 9 -14 9 -5 0 8 -4 24 -9 35 -5
13 -9 14 -9 5z"/>
<path d="M4250 4230 c-9 -6 -10 -10 -3 -10 6 0 15 5 18 10 8 12 4 12 -15 0z"/>
<path d="M4099 4149 c-6 -13 -7 -19 -1 -15 6 3 12 1 14 -6 3 -7 7 -5 11 6 5
11 3 15 -5 10 -8 -5 -9 -2 -5 9 9 24 0 21 -14 -4z"/>
<path d="M1962 3884 c21 -22 47 -40 58 -40 18 0 18 3 -8 29 -16 15 -35 29 -43
30 -8 2 -21 6 -29 11 -8 5 2 -9 22 -30z"/>
<path d="M2850 3236 c0 -2 8 -10 18 -17 15 -13 16 -12 3 4 -13 16 -21 21 -21
13z"/>
<path d="M2840 3176 c0 -2 8 -10 18 -17 15 -13 16 -12 3 4 -13 16 -21 21 -21
13z"/>
<path d="M2920 3145 c13 -14 26 -25 28 -25 3 0 -5 11 -18 25 -13 14 -26 25
-28 25 -3 0 5 -11 18 -25z"/>
<path d="M2680 3104 c1 -16 29 -60 29 -44 0 8 -6 24 -14 34 -8 11 -15 16 -15
10z"/>
<path d="M2726 3027 c3 -10 9 -15 12 -12 3 3 0 11 -7 18 -10 9 -11 8 -5 -6z"/>
<path d="M2811 2990 c0 -3 6 -30 14 -60 14 -52 15 -53 10 -11 -5 34 -25 95
-24 71z"/>
<path d="M2795 2918 c8 -26 43 -174 50 -212 11 -64 15 -34 5 35 -14 87 -41
189 -51 189 -5 0 -7 -6 -4 -12z"/>
<path d="M1757 3054 c-3 -3 8 -18 24 -31 16 -14 32 -23 34 -21 3 2 -8 17 -23
31 -16 15 -31 24 -35 21z"/>
<path d="M3270 2795 c0 -2 10 -10 23 -16 20 -11 21 -11 8 4 -13 16 -31 23 -31
12z"/>
<path d="M3017 2838 c-7 -19 7 -41 27 -44 21 -3 20 5 -3 35 -14 18 -19 20 -24
9z m21 -33 c-3 -3 -9 2 -12 12 -6 14 -5 15 5 6 7 -7 10 -15 7 -18z"/>
<path d="M2838 2146 c-67 -102 -83 -124 -126 -176 l-45 -55 62 60 c54 53 110
131 134 189 13 33 3 26 -25 -18z"/>
<path d="M2740 2130 c-12 -16 -19 -30 -16 -30 2 0 14 14 26 30 12 17 19 30 16
30 -2 0 -14 -13 -26 -30z"/>
<path d="M2685 2139 c-4 -6 -5 -12 -2 -15 2 -3 7 2 10 11 7 17 1 20 -8 4z"/>
<path d="M2469 1943 l-24 -28 28 24 c25 23 32 31 24 31 -2 0 -14 -12 -28 -27z"/>
<path d="M2364 1864 c-45 -43 -49 -48 -16 -22 75 57 97 77 86 78 -6 0 -37 -25
-70 -56z"/>
<path d="M3250 1595 c0 -19 4 -35 8 -35 4 0 6 16 4 35 -2 19 -6 35 -8 35 -2 0
-4 -16 -4 -35z"/>
<path d="M3340 1505 c0 -10 49 -83 60 -90 6 -3 8 -10 5 -15 -6 -10 61 -70 78
-70 7 0 -3 9 -21 20 -18 11 -30 25 -27 30 3 5 -17 37 -45 70 -27 34 -50 58
-50 55z"/>
<path d="M3410 1466 c0 -2 8 -10 18 -17 15 -13 16 -12 3 4 -13 16 -21 21 -21
13z"/>
<path d="M3326 1392 c-3 -5 1 -9 9 -9 8 0 12 4 9 9 -3 4 -7 8 -9 8 -2 0 -6 -4
-9 -8z"/>
<path d="M3460 1265 c13 -14 26 -25 28 -25 3 0 -5 11 -18 25 -13 14 -26 25
-28 25 -3 0 5 -11 18 -25z"/>
<path d="M3465 1195 l39 -50 -43 40 -44 40 32 -44 c17 -24 31 -51 32 -60 0
-12 2 -11 8 3 6 17 13 11 49 -39 23 -32 52 -85 64 -117 11 -32 22 -57 24 -55
2 1 -4 29 -12 62 -11 42 -28 73 -59 109 -25 27 -42 52 -39 55 2 3 11 -5 19
-16 8 -12 34 -36 57 -54 43 -33 43 -33 17 -3 -15 16 -35 42 -45 58 l-19 29 30
-18 c17 -10 39 -26 50 -34 11 -8 -7 13 -40 48 -67 70 -92 88 -92 66 0 -8 4
-12 8 -9 4 2 10 1 13 -4 12 -20 -31 -7 -58 17 -25 22 -23 18 9 -24z"/>
<path d="M3620 1075 c13 -14 26 -25 28 -25 3 0 -5 11 -18 25 -13 14 -26 25
-28 25 -3 0 5 -11 18 -25z"/>
<path d="M3515 1035 c7 -34 57 -166 61 -162 5 5 -43 154 -56 173 -10 16 -10
15 -5 -11z"/>
<path d="M3684 967 c7 -21 92 -146 131 -192 14 -17 5 3 -20 45 -24 41 -49 80
-54 86 -5 7 -7 15 -3 20 4 4 1 4 -7 -1 -10 -6 -12 -2 -7 13 4 11 2 23 -3 27
-7 4 -8 -1 -5 -12 4 -13 0 -11 -16 7 -16 19 -20 20 -16 7z"/>
<path d="M3580 856 c0 -11 50 -106 55 -106 3 0 -7 24 -21 53 -28 55 -34 65
-34 53z"/>
<path d="M3512 810 c0 -19 2 -27 5 -17 2 9 2 25 0 35 -3 9 -5 1 -5 -18z"/>
<path d="M3868 1374 c6 -11 20 -28 33 -39 l23 -20 -23 32 c-26 38 -49 56 -33
27z"/>
<path d="M4070 1472 c6 -13 14 -21 18 -18 3 4 -2 14 -12 24 -18 16 -18 16 -6
-6z"/>
<path d="M3947 1427 c-3 -8 -1 -20 3 -27 10 -17 43 -23 37 -7 -2 7 -9 12 -14
12 -6 0 -15 4 -20 9 -5 5 -3 6 5 2 6 -4 12 -3 12 3 0 16 -17 22 -23 8z"/>
<path d="M3925 1160 c3 -5 11 -10 16 -10 6 0 7 5 4 10 -3 6 -11 10 -16 10 -6
0 -7 -4 -4 -10z"/>
<path d="M4270 1132 c0 -4 10 -13 23 -21 22 -14 22 -14 3 8 -20 22 -26 25 -26
13z"/>
<path d="M4220 1016 c0 -2 8 -10 18 -17 15 -13 16 -12 3 4 -13 16 -21 21 -21
13z"/>
<path d="M4329 845 c14 -30 40 -61 41 -50 0 6 -12 24 -26 40 -14 17 -21 21
-15 10z"/>
<path d="M4310 627 c0 -15 45 -97 53 -97 5 0 -3 21 -19 48 -30 53 -34 58 -34
49z"/>
<path d="M4361 583 c16 -27 27 -39 34 -32 6 6 -2 21 -24 42 l-33 32 23 -42z"/>
</g>
</svg>
